<svg width="692" height="570" viewBox="0 0 692 570" fill="none" xmlns="http://www.w3.org/2000/svg">
    <g filter="url(#filter0_f_0_1)">
        <path d="M346 474.686L591.085 -30.064H100.915L346 474.686Z" fill="url(#paint0_linear_0_1)"/>
    </g>
    <path d="M332.368 250L333.4 247.858L330.358 241.36H331.552L333.958 246.718L336.418 241.36H337.558L333.526 250H332.368ZM338.483 250V243.52H341.243C341.407 243.52 341.583 243.53 341.771 243.55C341.963 243.566 342.137 243.596 342.293 243.64C342.641 243.732 342.927 243.922 343.151 244.21C343.379 244.494 343.493 244.854 343.493 245.29C343.493 245.534 343.455 245.746 343.379 245.926C343.307 246.106 343.203 246.262 343.067 246.394C343.007 246.454 342.941 246.508 342.869 246.556C342.797 246.604 342.725 246.642 342.653 246.67C342.793 246.694 342.935 246.748 343.079 246.832C343.307 246.956 343.485 247.13 343.613 247.354C343.745 247.578 343.811 247.864 343.811 248.212C343.811 248.652 343.705 249.016 343.493 249.304C343.281 249.588 342.989 249.784 342.617 249.892C342.461 249.936 342.289 249.966 342.101 249.982C341.913 249.994 341.731 250 341.555 250H338.483ZM339.563 249.13H341.495C341.579 249.13 341.679 249.122 341.795 249.106C341.915 249.09 342.021 249.07 342.113 249.046C342.321 248.986 342.471 248.874 342.563 248.71C342.659 248.546 342.707 248.368 342.707 248.176C342.707 247.92 342.635 247.712 342.491 247.552C342.351 247.392 342.165 247.292 341.933 247.252C341.849 247.228 341.757 247.214 341.657 247.21C341.561 247.206 341.475 247.204 341.399 247.204H339.563V249.13ZM339.563 246.322H341.171C341.283 246.322 341.401 246.316 341.525 246.304C341.649 246.288 341.757 246.262 341.849 246.226C342.033 246.158 342.167 246.046 342.251 245.89C342.339 245.73 342.383 245.556 342.383 245.368C342.383 245.16 342.335 244.978 342.239 244.822C342.147 244.662 342.005 244.552 341.813 244.492C341.685 244.444 341.541 244.418 341.381 244.414C341.225 244.406 341.125 244.402 341.081 244.402H339.563V246.322ZM347.098 250.18C346.614 250.18 346.208 250.092 345.88 249.916C345.556 249.736 345.31 249.5 345.142 249.208C344.978 248.916 344.896 248.596 344.896 248.248C344.896 247.908 344.96 247.614 345.088 247.366C345.22 247.114 345.404 246.906 345.64 246.742C345.876 246.574 346.158 246.442 346.486 246.346C346.794 246.262 347.138 246.19 347.518 246.13C347.902 246.066 348.29 246.008 348.682 245.956C349.074 245.904 349.44 245.854 349.78 245.806L349.396 246.028C349.408 245.452 349.292 245.026 349.048 244.75C348.808 244.474 348.392 244.336 347.8 244.336C347.408 244.336 347.064 244.426 346.768 244.606C346.476 244.782 346.27 245.07 346.15 245.47L345.136 245.164C345.292 244.596 345.594 244.15 346.042 243.826C346.49 243.502 347.08 243.34 347.812 243.34C348.4 243.34 348.904 243.446 349.324 243.658C349.748 243.866 350.052 244.182 350.236 244.606C350.328 244.806 350.386 245.024 350.41 245.26C350.434 245.492 350.446 245.736 350.446 245.992V250H349.498V248.446L349.72 248.59C349.476 249.114 349.134 249.51 348.694 249.778C348.258 250.046 347.726 250.18 347.098 250.18ZM347.26 249.286C347.644 249.286 347.976 249.218 348.256 249.082C348.54 248.942 348.768 248.76 348.94 248.536C349.112 248.308 349.224 248.06 349.276 247.792C349.336 247.592 349.368 247.37 349.372 247.126C349.38 246.878 349.384 246.688 349.384 246.556L349.756 246.718C349.408 246.766 349.066 246.812 348.73 246.856C348.394 246.9 348.076 246.948 347.776 247C347.476 247.048 347.206 247.106 346.966 247.174C346.79 247.23 346.624 247.302 346.468 247.39C346.316 247.478 346.192 247.592 346.096 247.732C346.004 247.868 345.958 248.038 345.958 248.242C345.958 248.418 346.002 248.586 346.09 248.746C346.182 248.906 346.322 249.036 346.51 249.136C346.702 249.236 346.952 249.286 347.26 249.286ZM352.246 250V243.52H356.746V244.534H353.314V250H352.246ZM359.754 250.18C359.27 250.18 358.864 250.092 358.536 249.916C358.212 249.736 357.966 249.5 357.798 249.208C357.634 248.916 357.552 248.596 357.552 248.248C357.552 247.908 357.616 247.614 357.744 247.366C357.876 247.114 358.06 246.906 358.296 246.742C358.532 246.574 358.814 246.442 359.142 246.346C359.45 246.262 359.794 246.19 360.174 246.13C360.558 246.066 360.946 246.008 361.338 245.956C361.73 245.904 362.096 245.854 362.436 245.806L362.052 246.028C362.064 245.452 361.948 245.026 361.704 244.75C361.464 244.474 361.048 244.336 360.456 244.336C360.064 244.336 359.72 244.426 359.424 244.606C359.132 244.782 358.926 245.07 358.806 245.47L357.792 245.164C357.948 244.596 358.25 244.15 358.698 243.826C359.146 243.502 359.736 243.34 360.468 243.34C361.056 243.34 361.56 243.446 361.98 243.658C362.404 243.866 362.708 244.182 362.892 244.606C362.984 244.806 363.042 245.024 363.066 245.26C363.09 245.492 363.102 245.736 363.102 245.992V250H362.154V248.446L362.376 248.59C362.132 249.114 361.79 249.51 361.35 249.778C360.914 250.046 360.382 250.18 359.754 250.18ZM359.916 249.286C360.3 249.286 360.632 249.218 360.912 249.082C361.196 248.942 361.424 248.76 361.596 248.536C361.768 248.308 361.88 248.06 361.932 247.792C361.992 247.592 362.024 247.37 362.028 247.126C362.036 246.878 362.04 246.688 362.04 246.556L362.412 246.718C362.064 246.766 361.722 246.812 361.386 246.856C361.05 246.9 360.732 246.948 360.432 247C360.132 247.048 359.862 247.106 359.622 247.174C359.446 247.23 359.28 247.302 359.124 247.39C358.972 247.478 358.848 247.592 358.752 247.732C358.66 247.868 358.614 248.038 358.614 248.242C358.614 248.418 358.658 248.586 358.746 248.746C358.838 248.906 358.978 249.036 359.166 249.136C359.358 249.236 359.608 249.286 359.916 249.286Z" fill="white"/>
    <path d="M324.998 311V302.36H326.066V311H324.998ZM328.1 311V304.52H329.168V307.25H332.576V304.52H333.644V311H332.576V308.264H329.168V311H328.1ZM337.281 311V305.492H335.025V304.52H340.605V305.492H338.349V311H337.281ZM344.789 311.18C344.153 311.18 343.597 311.04 343.121 310.76C342.649 310.476 342.281 310.082 342.017 309.578C341.753 309.07 341.621 308.478 341.621 307.802C341.621 307.094 341.751 306.482 342.011 305.966C342.271 305.446 342.633 305.046 343.097 304.766C343.565 304.482 344.113 304.34 344.741 304.34C345.393 304.34 345.947 304.49 346.403 304.79C346.863 305.09 347.207 305.518 347.435 306.074C347.667 306.63 347.767 307.292 347.735 308.06H346.655V307.676C346.643 306.88 346.481 306.286 346.169 305.894C345.857 305.498 345.393 305.3 344.777 305.3C344.117 305.3 343.615 305.512 343.271 305.936C342.927 306.36 342.755 306.968 342.755 307.76C342.755 308.524 342.927 309.116 343.271 309.536C343.615 309.956 344.105 310.166 344.741 310.166C345.169 310.166 345.541 310.068 345.857 309.872C346.173 309.676 346.421 309.394 346.601 309.026L347.627 309.38C347.375 309.952 346.995 310.396 346.487 310.712C345.983 311.024 345.417 311.18 344.789 311.18ZM342.395 308.06V307.202H347.183V308.06H342.395ZM352.286 311.18C351.678 311.18 351.166 311.03 350.75 310.73C350.334 310.426 350.018 310.016 349.802 309.5C349.59 308.98 349.484 308.398 349.484 307.754C349.484 307.102 349.59 306.518 349.802 306.002C350.018 305.486 350.334 305.08 350.75 304.784C351.17 304.488 351.684 304.34 352.292 304.34C352.892 304.34 353.408 304.49 353.84 304.79C354.276 305.086 354.61 305.492 354.842 306.008C355.074 306.524 355.19 307.106 355.19 307.754C355.19 308.402 355.074 308.984 354.842 309.5C354.61 310.016 354.276 310.426 353.84 310.73C353.408 311.03 352.89 311.18 352.286 311.18ZM349.304 313.88V304.52H350.258V309.29H350.378V313.88H349.304ZM352.154 310.202C352.582 310.202 352.936 310.094 353.216 309.878C353.496 309.662 353.706 309.37 353.846 309.002C353.986 308.63 354.056 308.214 354.056 307.754C354.056 307.298 353.986 306.886 353.846 306.518C353.71 306.15 353.498 305.858 353.21 305.642C352.926 305.426 352.564 305.318 352.124 305.318C351.704 305.318 351.356 305.422 351.08 305.63C350.804 305.834 350.598 306.12 350.462 306.488C350.326 306.852 350.258 307.274 350.258 307.754C350.258 308.226 350.324 308.648 350.456 309.02C350.592 309.388 350.8 309.678 351.08 309.89C351.36 310.098 351.718 310.202 352.154 310.202ZM359.554 311.18C358.918 311.18 358.362 311.04 357.886 310.76C357.414 310.476 357.046 310.082 356.782 309.578C356.518 309.07 356.386 308.478 356.386 307.802C356.386 307.094 356.516 306.482 356.776 305.966C357.036 305.446 357.398 305.046 357.862 304.766C358.33 304.482 358.878 304.34 359.506 304.34C360.158 304.34 360.712 304.49 361.168 304.79C361.628 305.09 361.972 305.518 362.2 306.074C362.432 306.63 362.532 307.292 362.5 308.06H361.42V307.676C361.408 306.88 361.246 306.286 360.934 305.894C360.622 305.498 360.158 305.3 359.542 305.3C358.882 305.3 358.38 305.512 358.036 305.936C357.692 306.36 357.52 306.968 357.52 307.76C357.52 308.524 357.692 309.116 358.036 309.536C358.38 309.956 358.87 310.166 359.506 310.166C359.934 310.166 360.306 310.068 360.622 309.872C360.938 309.676 361.186 309.394 361.366 309.026L362.392 309.38C362.14 309.952 361.76 310.396 361.252 310.712C360.748 311.024 360.182 311.18 359.554 311.18ZM357.16 308.06V307.202H361.948V308.06H357.16ZM366.806 311.18C366.15 311.18 365.592 311.034 365.132 310.742C364.676 310.446 364.328 310.04 364.088 309.524C363.848 309.008 363.724 308.42 363.716 307.76C363.724 307.084 363.85 306.49 364.094 305.978C364.342 305.462 364.696 305.06 365.156 304.772C365.616 304.484 366.17 304.34 366.818 304.34C367.502 304.34 368.09 304.508 368.582 304.844C369.078 305.18 369.41 305.64 369.578 306.224L368.522 306.542C368.386 306.166 368.164 305.874 367.856 305.666C367.552 305.458 367.202 305.354 366.806 305.354C366.362 305.354 365.996 305.458 365.708 305.666C365.42 305.87 365.206 306.154 365.066 306.518C364.926 306.878 364.854 307.292 364.85 307.76C364.858 308.48 365.024 309.062 365.348 309.506C365.676 309.946 366.162 310.166 366.806 310.166C367.23 310.166 367.582 310.07 367.862 309.878C368.142 309.682 368.354 309.4 368.498 309.032L369.578 309.314C369.354 309.918 369.004 310.38 368.528 310.7C368.052 311.02 367.478 311.18 366.806 311.18Z" fill="white"/>
    <path d="M318.965 372.18C318.373 372.18 317.857 372.094 317.417 371.922C316.981 371.746 316.619 371.518 316.331 371.238C316.047 370.954 315.831 370.65 315.683 370.326L316.631 369.738C316.727 369.99 316.875 370.224 317.075 370.44C317.279 370.656 317.539 370.83 317.855 370.962C318.175 371.094 318.559 371.16 319.007 371.16C319.463 371.16 319.845 371.09 320.153 370.95C320.461 370.806 320.691 370.612 320.843 370.368C320.999 370.12 321.077 369.836 321.077 369.516C321.077 369.152 320.987 368.872 320.807 368.676C320.627 368.476 320.385 368.336 320.081 368.256C319.781 368.172 319.449 368.124 319.085 368.112C318.801 368.1 318.597 368.092 318.473 368.088C318.349 368.084 318.265 368.082 318.221 368.082C318.181 368.082 318.143 368.082 318.107 368.082V367.062C318.143 367.062 318.219 367.062 318.335 367.062C318.451 367.062 318.573 367.062 318.701 367.062C318.829 367.058 318.931 367.054 319.007 367.05C319.543 367.022 319.969 366.886 320.285 366.642C320.601 366.394 320.759 366.054 320.759 365.622C320.759 365.174 320.597 364.824 320.273 364.572C319.953 364.32 319.535 364.194 319.019 364.194C318.531 364.194 318.115 364.308 317.771 364.536C317.431 364.764 317.159 365.058 316.955 365.418L316.133 364.716C316.413 364.272 316.801 363.906 317.297 363.618C317.797 363.326 318.381 363.18 319.049 363.18C319.417 363.18 319.771 363.23 320.111 363.33C320.455 363.426 320.759 363.574 321.023 363.774C321.291 363.97 321.503 364.22 321.659 364.524C321.815 364.824 321.893 365.18 321.893 365.592C321.893 366.036 321.799 366.43 321.611 366.774C321.423 367.118 321.177 367.384 320.873 367.572C321.293 367.712 321.621 367.944 321.857 368.268C322.093 368.592 322.211 369.012 322.211 369.528C322.211 370.068 322.073 370.536 321.797 370.932C321.525 371.328 321.145 371.636 320.657 371.856C320.169 372.072 319.605 372.18 318.965 372.18ZM325.556 372.18C325.072 372.18 324.666 372.092 324.338 371.916C324.014 371.736 323.768 371.5 323.6 371.208C323.436 370.916 323.354 370.596 323.354 370.248C323.354 369.908 323.418 369.614 323.546 369.366C323.678 369.114 323.862 368.906 324.098 368.742C324.334 368.574 324.616 368.442 324.944 368.346C325.252 368.262 325.596 368.19 325.976 368.13C326.36 368.066 326.748 368.008 327.14 367.956C327.532 367.904 327.898 367.854 328.238 367.806L327.854 368.028C327.866 367.452 327.75 367.026 327.506 366.75C327.266 366.474 326.85 366.336 326.258 366.336C325.866 366.336 325.522 366.426 325.226 366.606C324.934 366.782 324.728 367.07 324.608 367.47L323.594 367.164C323.75 366.596 324.052 366.15 324.5 365.826C324.948 365.502 325.538 365.34 326.27 365.34C326.858 365.34 327.362 365.446 327.782 365.658C328.206 365.866 328.51 366.182 328.694 366.606C328.786 366.806 328.844 367.024 328.868 367.26C328.892 367.492 328.904 367.736 328.904 367.992V372H327.956V370.446L328.178 370.59C327.934 371.114 327.592 371.51 327.152 371.778C326.716 372.046 326.184 372.18 325.556 372.18ZM325.718 371.286C326.102 371.286 326.434 371.218 326.714 371.082C326.998 370.942 327.226 370.76 327.398 370.536C327.57 370.308 327.682 370.06 327.734 369.792C327.794 369.592 327.826 369.37 327.83 369.126C327.838 368.878 327.842 368.688 327.842 368.556L328.214 368.718C327.866 368.766 327.524 368.812 327.188 368.856C326.852 368.9 326.534 368.948 326.234 369C325.934 369.048 325.664 369.106 325.424 369.174C325.248 369.23 325.082 369.302 324.926 369.39C324.774 369.478 324.65 369.592 324.554 369.732C324.462 369.868 324.416 370.038 324.416 370.242C324.416 370.418 324.46 370.586 324.548 370.746C324.64 370.906 324.78 371.036 324.968 371.136C325.16 371.236 325.41 371.286 325.718 371.286ZM330.104 372V371.082C330.344 371.126 330.526 371.118 330.65 371.058C330.778 370.994 330.872 370.884 330.932 370.728C330.996 370.568 331.048 370.368 331.088 370.128C331.156 369.748 331.214 369.324 331.262 368.856C331.314 368.388 331.36 367.876 331.4 367.32C331.444 366.76 331.484 366.16 331.52 365.52H336.05V372H334.982V366.534H332.492C332.468 366.902 332.438 367.28 332.402 367.668C332.37 368.056 332.336 368.434 332.3 368.802C332.264 369.166 332.224 369.506 332.18 369.822C332.14 370.134 332.096 370.404 332.048 370.632C331.972 371.024 331.866 371.338 331.73 371.574C331.594 371.806 331.398 371.956 331.142 372.024C330.886 372.096 330.54 372.088 330.104 372ZM338.875 374.88L340.129 371.472L340.147 372.48L337.315 365.52H338.437L340.657 371.118H340.273L342.355 365.52H343.441L339.913 374.88H338.875ZM348.572 372V369.666C348.356 369.774 348.094 369.866 347.786 369.942C347.482 370.018 347.156 370.056 346.808 370.056C346.148 370.056 345.616 369.908 345.212 369.612C344.808 369.316 344.544 368.89 344.42 368.334C344.384 368.166 344.358 367.992 344.342 367.812C344.33 367.632 344.322 367.468 344.318 367.32C344.314 367.172 344.312 367.064 344.312 366.996V365.52H345.392V366.996C345.392 367.112 345.396 367.256 345.404 367.428C345.412 367.596 345.432 367.76 345.464 367.92C345.544 368.316 345.71 368.614 345.962 368.814C346.218 369.014 346.578 369.114 347.042 369.114C347.354 369.114 347.642 369.074 347.906 368.994C348.17 368.914 348.392 368.808 348.572 368.676V365.52H349.646V372H348.572ZM354.376 372.18C353.74 372.18 353.184 372.04 352.708 371.76C352.236 371.476 351.868 371.082 351.604 370.578C351.34 370.07 351.208 369.478 351.208 368.802C351.208 368.094 351.338 367.482 351.598 366.966C351.858 366.446 352.22 366.046 352.684 365.766C353.152 365.482 353.7 365.34 354.328 365.34C354.98 365.34 355.534 365.49 355.99 365.79C356.45 366.09 356.794 366.518 357.022 367.074C357.254 367.63 357.354 368.292 357.322 369.06H356.242V368.676C356.23 367.88 356.068 367.286 355.756 366.894C355.444 366.498 354.98 366.3 354.364 366.3C353.704 366.3 353.202 366.512 352.858 366.936C352.514 367.36 352.342 367.968 352.342 368.76C352.342 369.524 352.514 370.116 352.858 370.536C353.202 370.956 353.692 371.166 354.328 371.166C354.756 371.166 355.128 371.068 355.444 370.872C355.76 370.676 356.008 370.394 356.188 370.026L357.214 370.38C356.962 370.952 356.582 371.396 356.074 371.712C355.57 372.024 355.004 372.18 354.376 372.18ZM351.982 369.06V368.202H356.77V369.06H351.982ZM358.892 372V365.52H359.96V368.25H363.368V365.52H364.436V372H363.368V369.264H359.96V372H358.892ZM366.351 372V365.52H367.419V368.25H370.827V365.52H371.895V372H370.827V369.264H367.419V372H366.351ZM377.818 372V369.654H376.42C376.256 369.654 376.074 369.648 375.874 369.636C375.678 369.62 375.494 369.598 375.322 369.57C374.854 369.482 374.458 369.276 374.134 368.952C373.814 368.628 373.654 368.18 373.654 367.608C373.654 367.052 373.804 366.606 374.104 366.27C374.408 365.93 374.782 365.71 375.226 365.61C375.426 365.562 375.628 365.536 375.832 365.532C376.04 365.524 376.216 365.52 376.36 365.52H378.886L378.892 372H377.818ZM373.456 372L375.178 369.36H376.33L374.608 372H373.456ZM376.342 368.772H377.818V366.402H376.342C376.25 366.402 376.128 366.406 375.976 366.414C375.828 366.422 375.686 366.446 375.55 366.486C375.422 366.522 375.296 366.588 375.172 366.684C375.052 366.78 374.952 366.904 374.872 367.056C374.792 367.208 374.752 367.388 374.752 367.596C374.752 367.896 374.836 368.14 375.004 368.328C375.172 368.512 375.376 368.636 375.616 368.7C375.748 368.732 375.878 368.752 376.006 368.76C376.138 368.768 376.25 368.772 376.342 368.772Z" fill="white"/>
    <path d="M327.533 434.44V431.986C327.849 431.986 328.105 431.906 328.301 431.746C328.501 431.586 328.657 431.37 328.769 431.098C328.881 430.822 328.965 430.512 329.021 430.168C329.081 429.824 329.129 429.468 329.165 429.1C329.217 428.58 329.259 428.076 329.291 427.588C329.327 427.1 329.359 426.594 329.387 426.07C329.415 425.546 329.447 424.974 329.483 424.354L334.913 424.36V431.986H335.543V434.44H334.475V433H328.601V434.44H327.533ZM329.405 431.986H333.845V425.374L330.473 425.368C330.449 425.832 330.425 426.278 330.401 426.706C330.381 427.13 330.355 427.558 330.323 427.99C330.291 428.422 330.251 428.88 330.203 429.364C330.159 429.812 330.109 430.2 330.053 430.528C330.001 430.852 329.925 431.132 329.825 431.368C329.725 431.6 329.585 431.806 329.405 431.986ZM339.859 433.18C339.215 433.18 338.659 433.034 338.191 432.742C337.727 432.45 337.369 432.046 337.117 431.53C336.865 431.014 336.739 430.422 336.739 429.754C336.739 429.074 336.867 428.478 337.123 427.966C337.379 427.454 337.741 427.056 338.209 426.772C338.677 426.484 339.227 426.34 339.859 426.34C340.507 426.34 341.065 426.486 341.533 426.778C342.001 427.066 342.359 427.468 342.607 427.984C342.859 428.496 342.985 429.086 342.985 429.754C342.985 430.43 342.859 431.026 342.607 431.542C342.355 432.054 341.995 432.456 341.527 432.748C341.059 433.036 340.503 433.18 339.859 433.18ZM339.859 432.166C340.531 432.166 341.031 431.942 341.359 431.494C341.687 431.046 341.851 430.466 341.851 429.754C341.851 429.022 341.685 428.44 341.353 428.008C341.021 427.572 340.523 427.354 339.859 427.354C339.407 427.354 339.035 427.456 338.743 427.66C338.451 427.864 338.233 428.146 338.089 428.506C337.945 428.866 337.873 429.282 337.873 429.754C337.873 430.482 338.041 431.066 338.377 431.506C338.713 431.946 339.207 432.166 339.859 432.166ZM344.54 433V426.52H347.3C347.464 426.52 347.64 426.53 347.828 426.55C348.02 426.566 348.194 426.596 348.35 426.64C348.698 426.732 348.984 426.922 349.208 427.21C349.436 427.494 349.55 427.854 349.55 428.29C349.55 428.534 349.512 428.746 349.436 428.926C349.364 429.106 349.26 429.262 349.124 429.394C349.064 429.454 348.998 429.508 348.926 429.556C348.854 429.604 348.782 429.642 348.71 429.67C348.85 429.694 348.992 429.748 349.136 429.832C349.364 429.956 349.542 430.13 349.67 430.354C349.802 430.578 349.868 430.864 349.868 431.212C349.868 431.652 349.762 432.016 349.55 432.304C349.338 432.588 349.046 432.784 348.674 432.892C348.518 432.936 348.346 432.966 348.158 432.982C347.97 432.994 347.788 433 347.612 433H344.54ZM345.62 432.13H347.552C347.636 432.13 347.736 432.122 347.852 432.106C347.972 432.09 348.078 432.07 348.17 432.046C348.378 431.986 348.528 431.874 348.62 431.71C348.716 431.546 348.764 431.368 348.764 431.176C348.764 430.92 348.692 430.712 348.548 430.552C348.408 430.392 348.222 430.292 347.99 430.252C347.906 430.228 347.814 430.214 347.714 430.21C347.618 430.206 347.532 430.204 347.456 430.204H345.62V432.13ZM345.62 429.322H347.228C347.34 429.322 347.458 429.316 347.582 429.304C347.706 429.288 347.814 429.262 347.906 429.226C348.09 429.158 348.224 429.046 348.308 428.89C348.396 428.73 348.44 428.556 348.44 428.368C348.44 428.16 348.392 427.978 348.296 427.822C348.204 427.662 348.062 427.552 347.87 427.492C347.742 427.444 347.598 427.418 347.438 427.414C347.282 427.406 347.182 427.402 347.138 427.402H345.62V429.322ZM351.434 425.374V424.27H352.502V425.374H351.434ZM351.434 433V426.52H352.502V433H351.434ZM357.518 433.18C356.91 433.18 356.398 433.03 355.982 432.73C355.566 432.426 355.25 432.016 355.034 431.5C354.822 430.98 354.716 430.398 354.716 429.754C354.716 429.102 354.822 428.518 355.034 428.002C355.25 427.486 355.566 427.08 355.982 426.784C356.402 426.488 356.916 426.34 357.524 426.34C358.124 426.34 358.64 426.49 359.072 426.79C359.508 427.086 359.842 427.492 360.074 428.008C360.306 428.524 360.422 429.106 360.422 429.754C360.422 430.402 360.306 430.984 360.074 431.5C359.842 432.016 359.508 432.426 359.072 432.73C358.64 433.03 358.122 433.18 357.518 433.18ZM354.536 435.88V426.52H355.49V431.29H355.61V435.88H354.536ZM357.386 432.202C357.814 432.202 358.168 432.094 358.448 431.878C358.728 431.662 358.938 431.37 359.078 431.002C359.218 430.63 359.288 430.214 359.288 429.754C359.288 429.298 359.218 428.886 359.078 428.518C358.942 428.15 358.73 427.858 358.442 427.642C358.158 427.426 357.796 427.318 357.356 427.318C356.936 427.318 356.588 427.422 356.312 427.63C356.036 427.834 355.83 428.12 355.694 428.488C355.558 428.852 355.49 429.274 355.49 429.754C355.49 430.226 355.556 430.648 355.688 431.02C355.824 431.388 356.032 431.678 356.312 431.89C356.592 432.098 356.95 432.202 357.386 432.202ZM363.819 433.18C363.335 433.18 362.929 433.092 362.601 432.916C362.277 432.736 362.031 432.5 361.863 432.208C361.699 431.916 361.617 431.596 361.617 431.248C361.617 430.908 361.681 430.614 361.809 430.366C361.941 430.114 362.125 429.906 362.361 429.742C362.597 429.574 362.879 429.442 363.207 429.346C363.515 429.262 363.859 429.19 364.239 429.13C364.623 429.066 365.011 429.008 365.403 428.956C365.795 428.904 366.161 428.854 366.501 428.806L366.117 429.028C366.129 428.452 366.013 428.026 365.769 427.75C365.529 427.474 365.113 427.336 364.521 427.336C364.129 427.336 363.785 427.426 363.489 427.606C363.197 427.782 362.991 428.07 362.871 428.47L361.857 428.164C362.013 427.596 362.315 427.15 362.763 426.826C363.211 426.502 363.801 426.34 364.533 426.34C365.121 426.34 365.625 426.446 366.045 426.658C366.469 426.866 366.773 427.182 366.957 427.606C367.049 427.806 367.107 428.024 367.131 428.26C367.155 428.492 367.167 428.736 367.167 428.992V433H366.219V431.446L366.441 431.59C366.197 432.114 365.855 432.51 365.415 432.778C364.979 433.046 364.447 433.18 363.819 433.18ZM363.981 432.286C364.365 432.286 364.697 432.218 364.977 432.082C365.261 431.942 365.489 431.76 365.661 431.536C365.833 431.308 365.945 431.06 365.997 430.792C366.057 430.592 366.089 430.37 366.093 430.126C366.101 429.878 366.105 429.688 366.105 429.556L366.477 429.718C366.129 429.766 365.787 429.812 365.451 429.856C365.115 429.9 364.797 429.948 364.497 430C364.197 430.048 363.927 430.106 363.687 430.174C363.511 430.23 363.345 430.302 363.189 430.39C363.037 430.478 362.913 430.592 362.817 430.732C362.725 430.868 362.679 431.038 362.679 431.242C362.679 431.418 362.723 431.586 362.811 431.746C362.903 431.906 363.043 432.036 363.231 432.136C363.423 432.236 363.673 432.286 363.981 432.286Z" fill="white"/>
    <path d="M313.459 495.686V494.756C313.671 494.776 313.847 494.766 313.987 494.726C314.127 494.686 314.241 494.6 314.329 494.468C314.421 494.336 314.501 494.144 314.569 493.892C314.637 493.636 314.703 493.304 314.767 492.896C314.851 492.416 314.921 491.932 314.977 491.444C315.033 490.952 315.081 490.46 315.121 489.968C315.165 489.472 315.201 488.98 315.229 488.492C315.257 488 315.281 487.518 315.301 487.046H320.863V495.686H319.795V488.06H316.315C316.291 488.424 316.265 488.814 316.237 489.23C316.213 489.642 316.181 490.072 316.141 490.52C316.101 490.968 316.053 491.43 315.997 491.906C315.941 492.382 315.871 492.866 315.787 493.358C315.719 493.754 315.637 494.116 315.541 494.444C315.449 494.772 315.319 495.046 315.151 495.266C314.987 495.486 314.769 495.636 314.497 495.716C314.229 495.796 313.883 495.786 313.459 495.686ZM325.543 495.866C324.899 495.866 324.343 495.72 323.875 495.428C323.411 495.136 323.053 494.732 322.801 494.216C322.549 493.7 322.423 493.108 322.423 492.44C322.423 491.76 322.551 491.164 322.807 490.652C323.063 490.14 323.425 489.742 323.893 489.458C324.361 489.17 324.911 489.026 325.543 489.026C326.191 489.026 326.749 489.172 327.217 489.464C327.685 489.752 328.043 490.154 328.291 490.67C328.543 491.182 328.669 491.772 328.669 492.44C328.669 493.116 328.543 493.712 328.291 494.228C328.039 494.74 327.679 495.142 327.211 495.434C326.743 495.722 326.187 495.866 325.543 495.866ZM325.543 494.852C326.215 494.852 326.715 494.628 327.043 494.18C327.371 493.732 327.535 493.152 327.535 492.44C327.535 491.708 327.369 491.126 327.037 490.694C326.705 490.258 326.207 490.04 325.543 490.04C325.091 490.04 324.719 490.142 324.427 490.346C324.135 490.55 323.917 490.832 323.773 491.192C323.629 491.552 323.557 491.968 323.557 492.44C323.557 493.168 323.725 493.752 324.061 494.192C324.397 494.632 324.891 494.852 325.543 494.852ZM334.232 495.686V493.34H332.834C332.67 493.34 332.488 493.334 332.288 493.322C332.092 493.306 331.908 493.284 331.736 493.256C331.268 493.168 330.872 492.962 330.548 492.638C330.228 492.314 330.068 491.866 330.068 491.294C330.068 490.738 330.218 490.292 330.518 489.956C330.822 489.616 331.196 489.396 331.64 489.296C331.84 489.248 332.042 489.222 332.246 489.218C332.454 489.21 332.63 489.206 332.774 489.206H335.3L335.306 495.686H334.232ZM329.87 495.686L331.592 493.046H332.744L331.022 495.686H329.87ZM332.756 492.458H334.232V490.088H332.756C332.664 490.088 332.542 490.092 332.39 490.1C332.242 490.108 332.1 490.132 331.964 490.172C331.836 490.208 331.71 490.274 331.586 490.37C331.466 490.466 331.366 490.59 331.286 490.742C331.206 490.894 331.166 491.074 331.166 491.282C331.166 491.582 331.25 491.826 331.418 492.014C331.586 492.198 331.79 492.322 332.03 492.386C332.162 492.418 332.292 492.438 332.42 492.446C332.552 492.454 332.664 492.458 332.756 492.458ZM336.632 495.686V494.768C336.872 494.812 337.054 494.804 337.178 494.744C337.306 494.68 337.4 494.57 337.46 494.414C337.524 494.254 337.576 494.054 337.616 493.814C337.684 493.434 337.742 493.01 337.79 492.542C337.842 492.074 337.888 491.562 337.928 491.006C337.972 490.446 338.012 489.846 338.048 489.206H342.578V495.686H341.51V490.22H339.02C338.996 490.588 338.966 490.966 338.93 491.354C338.898 491.742 338.864 492.12 338.828 492.488C338.792 492.852 338.752 493.192 338.708 493.508C338.668 493.82 338.624 494.09 338.576 494.318C338.5 494.71 338.394 495.024 338.258 495.26C338.122 495.492 337.926 495.642 337.67 495.71C337.414 495.782 337.068 495.774 336.632 495.686ZM344.503 495.686L344.497 489.206H345.571V491.552H346.969C347.157 491.552 347.349 491.556 347.545 491.564C347.741 491.572 347.911 491.59 348.055 491.618C348.391 491.682 348.685 491.794 348.937 491.954C349.189 492.114 349.385 492.332 349.525 492.608C349.665 492.88 349.735 493.218 349.735 493.622C349.735 494.182 349.589 494.626 349.297 494.954C349.009 495.278 348.631 495.494 348.163 495.602C348.003 495.638 347.819 495.662 347.611 495.674C347.407 495.682 347.213 495.686 347.029 495.686H344.503ZM345.571 494.804H347.047C347.167 494.804 347.301 494.8 347.449 494.792C347.597 494.784 347.729 494.764 347.845 494.732C348.049 494.672 348.231 494.554 348.391 494.378C348.555 494.202 348.637 493.95 348.637 493.622C348.637 493.29 348.557 493.034 348.397 492.854C348.241 492.674 348.035 492.556 347.779 492.5C347.663 492.472 347.541 492.454 347.413 492.446C347.285 492.438 347.163 492.434 347.047 492.434H345.571V494.804ZM351.112 495.686V489.206H352.18V491.936H355.588V489.206H356.656V495.686H355.588V492.95H352.18V495.686H351.112ZM358.697 488.06V486.956H359.765V488.06H358.697ZM358.697 495.686V489.206H359.765V495.686H358.697ZM364.535 495.866C363.879 495.866 363.321 495.72 362.861 495.428C362.405 495.132 362.057 494.726 361.817 494.21C361.577 493.694 361.453 493.106 361.445 492.446C361.453 491.77 361.579 491.176 361.823 490.664C362.071 490.148 362.425 489.746 362.885 489.458C363.345 489.17 363.899 489.026 364.547 489.026C365.231 489.026 365.819 489.194 366.311 489.53C366.807 489.866 367.139 490.326 367.307 490.91L366.251 491.228C366.115 490.852 365.893 490.56 365.585 490.352C365.281 490.144 364.931 490.04 364.535 490.04C364.091 490.04 363.725 490.144 363.437 490.352C363.149 490.556 362.935 490.84 362.795 491.204C362.655 491.564 362.583 491.978 362.579 492.446C362.587 493.166 362.753 493.748 363.077 494.192C363.405 494.632 363.891 494.852 364.535 494.852C364.959 494.852 365.311 494.756 365.591 494.564C365.871 494.368 366.083 494.086 366.227 493.718L367.307 494C367.083 494.604 366.733 495.066 366.257 495.386C365.781 495.706 365.207 495.866 364.535 495.866ZM370.371 495.686V490.178H368.115V489.206H373.695V490.178H371.439V495.686H370.371ZM375.07 495.686L375.064 489.206H376.138V491.552H377.536C377.724 491.552 377.916 491.556 378.112 491.564C378.308 491.572 378.478 491.59 378.622 491.618C378.958 491.682 379.252 491.794 379.504 491.954C379.756 492.114 379.952 492.332 380.092 492.608C380.232 492.88 380.302 493.218 380.302 493.622C380.302 494.182 380.156 494.626 379.864 494.954C379.576 495.278 379.198 495.494 378.73 495.602C378.57 495.638 378.386 495.662 378.178 495.674C377.974 495.682 377.78 495.686 377.596 495.686H375.07ZM376.138 494.804H377.614C377.734 494.804 377.868 494.8 378.016 494.792C378.164 494.784 378.296 494.764 378.412 494.732C378.616 494.672 378.798 494.554 378.958 494.378C379.122 494.202 379.204 493.95 379.204 493.622C379.204 493.29 379.124 493.034 378.964 492.854C378.808 492.674 378.602 492.556 378.346 492.5C378.23 492.472 378.108 492.454 377.98 492.446C377.852 492.438 377.73 492.434 377.614 492.434H376.138V494.804Z" fill="white"/>
    <path d="M347 432.186C364.923 432.186 381.134 433.863 392.85 436.567C398.712 437.92 403.421 439.523 406.652 441.287C408.268 442.168 409.492 443.077 410.306 443.995C411.117 444.909 411.5 445.807 411.5 446.686C411.5 447.565 411.117 448.463 410.306 449.377C409.492 450.295 408.268 451.204 406.652 452.085C403.421 453.849 398.712 455.452 392.85 456.805C381.134 459.509 364.923 461.186 347 461.186C329.077 461.186 312.866 459.509 301.15 456.805C295.288 455.452 290.579 453.849 287.348 452.085C285.732 451.204 284.508 450.295 283.694 449.377C282.883 448.463 282.5 447.565 282.5 446.686C282.5 445.807 282.883 444.909 283.694 443.995C284.508 443.077 285.732 442.168 287.348 441.287C290.579 439.523 295.288 437.92 301.15 436.567C312.866 433.863 329.077 432.186 347 432.186Z" stroke="url(#paint1_linear_0_1)"/>
    <path d="M347 329.186C388.67 329.186 426.38 333.213 453.657 339.716C467.3 342.969 478.305 346.835 485.888 351.109C493.511 355.406 497.5 360.013 497.5 364.686C497.5 369.359 493.511 373.966 485.888 378.263C478.305 382.537 467.3 386.403 453.657 389.656C426.38 396.159 388.67 400.186 347 400.186C305.33 400.186 267.62 396.159 240.343 389.656C226.7 386.403 215.695 382.537 208.112 378.263C200.489 373.966 196.5 369.359 196.5 364.686C196.5 360.013 200.489 355.406 208.112 351.109C215.695 346.835 226.7 342.969 240.343 339.716C267.62 333.213 305.33 329.186 347 329.186Z" stroke="url(#paint2_linear_0_1)"/>
    <path d="M347 246.186C401.097 246.186 450.056 251.444 485.477 259.938C503.191 264.186 517.491 269.237 527.351 274.827C537.25 280.439 542.5 286.493 542.5 292.686C542.5 298.879 537.25 304.933 527.351 310.545C517.491 316.135 503.191 321.186 485.477 325.434C450.056 333.928 401.097 339.186 347 339.186C292.903 339.186 243.944 333.928 208.523 325.434C190.809 321.186 176.509 316.135 166.649 310.545C156.75 304.933 151.5 298.879 151.5 292.686C151.5 286.493 156.75 280.439 166.649 274.827C176.509 269.237 190.809 264.186 208.523 259.938C243.944 251.444 292.903 246.186 347 246.186Z" stroke="url(#paint3_linear_0_1)"/>
    <path d="M347 165.186C412.971 165.186 472.68 171.564 515.883 181.868C537.488 187.02 554.937 193.149 566.973 199.935C579.049 206.744 585.5 214.114 585.5 221.686C585.5 229.258 579.049 236.628 566.973 243.437C554.937 250.223 537.488 256.352 515.883 261.504C472.68 271.808 412.971 278.186 347 278.186C281.029 278.186 221.32 271.808 178.117 261.504C156.512 256.352 139.063 250.223 127.027 243.437C114.951 236.628 108.5 229.258 108.5 221.686C108.5 214.114 114.951 206.744 127.027 199.935C139.063 193.149 156.512 187.02 178.117 181.868C221.32 171.564 281.029 165.186 347 165.186Z" stroke="url(#paint4_linear_0_1)"/>
    <path d="M347 85.186C424.845 85.186 495.304 92.6832 546.288 104.796C571.784 110.854 592.382 118.059 606.594 126.042C620.847 134.049 628.5 142.734 628.5 151.686C628.5 160.638 620.847 169.323 606.594 177.33C592.382 185.313 571.784 192.518 546.288 198.576C495.304 210.689 424.845 218.186 347 218.186C269.155 218.186 198.696 210.689 147.712 198.576C122.216 192.518 101.618 185.313 87.4062 177.33C73.1534 169.323 65.5 160.638 65.5 151.686C65.5 142.734 73.1534 134.049 87.4062 126.042C101.618 118.059 122.216 110.854 147.712 104.796C198.696 92.6832 269.155 85.186 347 85.186Z" stroke="url(#paint5_linear_0_1)"/>
    <defs>
        <filter id="filter0_f_0_1" x="0.914795" y="-130.064" width="690.17" height="704.75" filterUnits="userSpaceOnUse" color-interpolation-filters="sRGB">
            <feFlood flood-opacity="0" result="BackgroundImageFix"/>
            <feBlend mode="normal" in="SourceGraphic" in2="BackgroundImageFix" result="shape"/>
            <feGaussianBlur stdDeviation="50" result="effect1_foregroundBlur_0_1"/>
        </filter>
        <linearGradient id="paint0_linear_0_1" x1="346" y1="-198.314" x2="346" y2="474.686" gradientUnits="userSpaceOnUse">
            <stop offset="0.33572" stop-color="#4B3BFF" stop-opacity="0"/>
            <stop offset="1" stop-color="#4B3BFF"/>
        </linearGradient>
        <linearGradient id="paint1_linear_0_1" x1="347" y1="461.686" x2="347" y2="431.686" gradientUnits="userSpaceOnUse">
            <stop stop-color="white"/>
            <stop offset="1" stop-color="white" stop-opacity="0.1"/>
        </linearGradient>
        <linearGradient id="paint2_linear_0_1" x1="347" y1="400.686" x2="347" y2="328.686" gradientUnits="userSpaceOnUse">
            <stop stop-color="white"/>
            <stop offset="1" stop-color="white" stop-opacity="0.1"/>
        </linearGradient>
        <linearGradient id="paint3_linear_0_1" x1="347" y1="339.686" x2="347" y2="245.686" gradientUnits="userSpaceOnUse">
            <stop stop-color="white"/>
            <stop offset="1" stop-color="white" stop-opacity="0.1"/>
        </linearGradient>
        <linearGradient id="paint4_linear_0_1" x1="347" y1="278.686" x2="347" y2="164.686" gradientUnits="userSpaceOnUse">
            <stop stop-color="white"/>
            <stop offset="1" stop-color="white" stop-opacity="0.1"/>
        </linearGradient>
        <linearGradient id="paint5_linear_0_1" x1="347" y1="218.686" x2="347" y2="84.686" gradientUnits="userSpaceOnUse">
            <stop stop-color="white"/>
            <stop offset="1" stop-color="white" stop-opacity="0.1"/>
        </linearGradient>
    </defs>
</svg>
