<svg width="139" height="48" viewBox="0 0 139 48" fill="none" xmlns="http://www.w3.org/2000/svg">
<g clip-path="url(#clip0_30_293)">
<path d="M81.62 13.46C81.62 16.9409 78.8683 19.5059 75.4913 19.5059C72.1144 19.5059 69.3627 16.9409 69.3627 13.46C69.3627 9.95455 72.1144 7.41406 75.4913 7.41406C78.8683 7.41406 81.62 9.95455 81.62 13.46ZM78.9372 13.46C78.9372 11.2848 77.3423 9.79645 75.4913 9.79645C73.6403 9.79645 72.0455 11.2848 72.0455 13.46C72.0455 15.6134 73.6403 17.1235 75.4913 17.1235C77.3423 17.1235 78.9372 15.6107 78.9372 13.46Z" fill="#EA4335"/>
<path d="M94.8414 13.46C94.8414 16.9409 92.0897 19.5059 88.7127 19.5059C85.3358 19.5059 82.584 16.9409 82.584 13.46C82.584 9.95727 85.3358 7.41406 88.7127 7.41406C92.0897 7.41406 94.8414 9.95455 94.8414 13.46ZM92.1585 13.46C92.1585 11.2848 90.5637 9.79645 88.7127 9.79645C86.8617 9.79645 85.2669 11.2848 85.2669 13.46C85.2669 15.6134 86.8617 17.1235 88.7127 17.1235C90.5637 17.1235 92.1585 15.6107 92.1585 13.46Z" fill="#FBBC05"/>
<path d="M107.512 7.77933V18.6336C107.512 23.0985 104.851 24.9221 101.706 24.9221C98.7445 24.9221 96.9624 22.9623 96.2903 21.3595L98.6261 20.3972C99.042 21.3813 100.061 22.5425 101.703 22.5425C103.716 22.5425 104.964 21.3131 104.964 18.9989V18.1293H104.87C104.27 18.8626 103.113 19.5032 101.653 19.5032C98.5985 19.5032 95.8 16.87 95.8 13.4818C95.8 10.069 98.5985 7.41406 101.653 7.41406C103.11 7.41406 104.267 8.05463 104.87 8.76608H104.964V7.78205H107.512V7.77933ZM105.154 13.4818C105.154 11.3529 103.719 9.79645 101.893 9.79645C100.042 9.79645 98.4911 11.3529 98.4911 13.4818C98.4911 15.5889 100.042 17.1235 101.893 17.1235C103.719 17.1235 105.154 15.5889 105.154 13.4818Z" fill="#4285F4"/>
<path d="M111.713 1.41699V19.135H109.096V1.41699H111.713Z" fill="#34A853"/>
<path d="M121.909 15.4494L123.992 16.8232C123.32 17.8072 121.7 19.5027 118.902 19.5027C115.431 19.5027 112.839 16.8477 112.839 13.4568C112.839 9.86142 115.453 7.41089 118.601 7.41089C121.772 7.41089 123.323 9.90776 123.829 11.257L124.108 11.944L115.941 15.2913C116.566 16.5043 117.538 17.1231 118.902 17.1231C120.268 17.1231 121.215 16.458 121.909 15.4494ZM115.5 13.2742L120.959 11.0308C120.659 10.2757 119.756 9.74966 118.692 9.74966C117.329 9.74966 115.431 10.9409 115.5 13.2742Z" fill="#EA4335"/>
<path d="M59.4576 11.8871V9.32211H68.192C68.2774 9.76915 68.3214 10.298 68.3214 10.8704C68.3214 12.7948 67.7898 15.1745 66.0765 16.87C64.4101 18.5872 62.2809 19.5031 59.4603 19.5031C54.2324 19.5031 49.8362 15.289 49.8362 10.1153C49.8362 4.94169 54.2324 0.727539 59.4603 0.727539C62.3525 0.727539 64.4128 1.85059 65.9609 3.31436L64.1319 5.12432C63.0218 4.09395 61.5179 3.29255 59.4576 3.29255C55.6399 3.29255 52.6541 6.33732 52.6541 10.1153C52.6541 13.8933 55.6399 16.9381 59.4576 16.9381C61.9338 16.9381 63.3441 15.9541 64.2476 15.06C64.9803 14.3349 65.4623 13.2991 65.6524 11.8844L59.4576 11.8871Z" fill="#4285F4"/>
<path d="M57.0045 29.0318L54.3147 36.3948H59.8028L57.0913 29.0318H57.0045ZM51.9937 42.7703H49.651L55.8549 26.4558H58.2626L64.4665 42.7703H62.1238L60.5403 38.3482H53.5989L51.9937 42.7703Z" fill="#747474"/>
<path d="M65.5345 31.6078H67.5735V33.1534H67.6603C67.9748 32.6114 68.4683 32.1606 69.1353 31.801C69.8132 31.4308 70.5073 31.2429 71.2177 31.2429C72.606 31.2429 73.6689 31.64 74.4064 32.4236C75.1548 33.1964 75.5344 34.3072 75.5344 35.7509V42.7704H73.4086V35.9011C73.3652 34.0711 72.4379 33.1534 70.6321 33.1534C69.7915 33.1534 69.0811 33.4969 68.5063 34.1838C67.9423 34.86 67.6603 35.6596 67.6603 36.5881V42.7704H65.5345V31.6078Z" fill="#747474"/>
<path d="M79.4577 39.3572C79.4577 39.9046 79.6855 40.3608 80.1519 40.7311C80.6128 41.0906 81.1605 41.2677 81.8004 41.2677C82.6789 41.2677 83.4707 40.9457 84.1648 40.3017C84.8698 39.647 85.2277 38.8742 85.2277 37.9834C84.5607 37.4682 83.6334 37.2106 82.4512 37.2106C81.5944 37.2106 80.8785 37.4199 80.3037 37.8331C79.7397 38.2356 79.4577 38.7454 79.4577 39.3572ZM82.1909 31.2429C83.7527 31.2429 84.9783 31.6615 85.8785 32.488C86.7895 33.3198 87.2451 34.4575 87.2451 35.9011V42.7704H85.2277V41.2248H85.141C84.257 42.502 83.0857 43.1353 81.6269 43.1353C80.3796 43.1353 79.3384 42.7704 78.5033 42.0405C77.679 41.3107 77.2668 40.4037 77.2668 39.3143C77.2668 38.1551 77.7061 37.2428 78.59 36.5666C79.4686 35.8797 80.6508 35.5362 82.1258 35.5362C83.3839 35.5362 84.4143 35.7616 85.2277 36.2017V35.7294C85.2277 34.9995 84.9295 34.3877 84.3384 33.8833C83.7581 33.3681 83.0802 33.1105 82.2993 33.1105C81.1117 33.1105 80.179 33.6042 79.5011 34.5917L77.6356 33.4325C78.6605 31.9728 80.179 31.2429 82.1909 31.2429Z" fill="#747474"/>
<path d="M91.6801 26.4558V42.7703H89.5543V26.4558H91.6801Z" fill="#747474"/>
<path d="M104.177 31.6077L97.1055 47.686H94.9364L97.5611 42.0618L92.8973 31.6077H95.1967L98.5589 39.6361H98.6023L101.878 31.6077H104.177Z" fill="#747474"/>
<path d="M110 42.9422C109.089 42.9422 108.33 42.6632 107.722 42.1051C107.115 41.5469 106.8 40.7688 106.789 39.7652V33.5185H104.794V31.608H106.789V28.1948H108.894V31.608H111.67V33.5185H108.894V39.0783C108.894 39.8242 109.035 40.3341 109.327 40.6024C109.631 40.86 109.962 40.9888 110.325 40.9888C110.499 40.9888 110.661 40.9781 110.824 40.9459C110.981 40.9029 111.133 40.8546 111.28 40.7956L111.93 42.6632C111.377 42.8456 110.737 42.9422 110 42.9422Z" fill="#747474"/>
<path d="M116.306 27.7656C116.306 28.1681 116.154 28.5169 115.851 28.8175C115.558 29.1073 115.211 29.2468 114.81 29.2468C114.387 29.2468 114.034 29.1073 113.747 28.8175C113.454 28.5169 113.313 28.1681 113.313 27.7656C113.313 27.3524 113.454 27.0035 113.747 26.7138C114.034 26.4293 114.387 26.2844 114.81 26.2844C115.211 26.2844 115.558 26.4293 115.851 26.7138C116.154 27.0035 116.306 27.3524 116.306 27.7656ZM115.872 31.6081V42.7706H113.747V31.6081H115.872Z" fill="#747474"/>
<path d="M123.013 43.1353C121.332 43.1353 119.944 42.5718 118.848 41.4395C117.764 40.2964 117.221 38.8796 117.221 37.1891C117.221 35.4718 117.764 34.055 118.848 32.9388C119.944 31.8118 121.332 31.2429 123.013 31.2429C124.168 31.2429 125.172 31.5327 126.028 32.1016C126.88 32.6758 127.525 33.4647 127.959 34.4629L126.028 35.2571C125.432 33.8565 124.385 33.1534 122.883 33.1534C121.912 33.1534 121.072 33.5398 120.367 34.3126C119.673 35.0854 119.326 36.046 119.326 37.1891C119.326 38.3376 119.673 39.2928 120.367 40.0656C121.072 40.8384 121.912 41.2248 122.883 41.2248C124.429 41.2248 125.513 40.5271 126.137 39.1211L128.024 39.9153C127.617 40.9189 126.972 41.7078 126.093 42.2766C125.209 42.8455 124.185 43.1353 123.013 43.1353Z" fill="#747474"/>
<path d="M138.5 39.6792C138.5 40.6559 138.066 41.477 137.199 42.1479C136.342 42.8026 135.268 43.1353 133.966 43.1353C132.839 43.1353 131.841 42.8401 130.973 42.2552C130.116 41.6702 129.503 40.8974 129.129 39.9368L131.016 39.1426C131.304 39.8187 131.711 40.3393 132.231 40.7096C132.763 41.0853 133.343 41.2677 133.966 41.2677C134.644 41.2677 135.208 41.1282 135.658 40.8384C136.119 40.554 136.353 40.2105 136.353 39.808C136.353 39.0943 135.794 38.5737 134.682 38.241L132.752 37.7687C130.55 37.2106 129.455 36.1587 129.455 34.6131C129.455 33.5989 129.872 32.7831 130.713 32.166C131.548 31.5542 132.622 31.2429 133.923 31.2429C134.921 31.2429 135.821 31.4791 136.635 31.9513C137.443 32.4236 138.007 33.0568 138.327 33.8404L136.439 34.6131C136.222 34.1409 135.865 33.776 135.376 33.5184C134.899 33.25 134.362 33.1105 133.771 33.1105C133.218 33.1105 132.719 33.25 132.275 33.5184C131.841 33.7921 131.624 34.1302 131.624 34.5273C131.624 35.1605 132.231 35.6167 133.446 35.9011L135.138 36.3305C137.378 36.8779 138.5 37.9941 138.5 39.6792Z" fill="#747474"/>
<path d="M29.6171 6.18673V40.7641C29.6171 44.6361 32.3137 46.789 35.1758 46.789C37.8228 46.789 40.7345 44.9553 40.7345 40.7641V6.44868C40.7345 2.90418 38.0875 0.685791 35.1758 0.685791C32.2641 0.685791 29.6171 3.13338 29.6171 6.18673Z" fill="#F8AB00"/>
<path d="M15.0585 23.7375V40.7643C15.0585 44.6362 17.7552 46.7891 20.6172 46.7891C23.2642 46.7891 26.1759 44.9555 26.1759 40.7643V23.9995C26.1759 20.455 23.5289 18.2366 20.6172 18.2366C17.7055 18.2366 15.0585 20.6842 15.0585 23.7375Z" fill="#E37300"/>
<path d="M11.6174 41.2881C11.6174 44.325 9.12758 46.789 6.05871 46.789C2.98984 46.789 0.5 44.325 0.5 41.2881C0.5 38.2511 2.98984 35.7871 6.05871 35.7871C9.12758 35.7871 11.6174 38.2511 11.6174 41.2881Z" fill="#E37300"/>
</g>
<defs>
<clipPath id="clip0_30_293">
<rect width="138" height="47" fill="white" transform="translate(0.5 0.686035)"/>
</clipPath>
</defs>
</svg>
