<svg width="155" height="48" viewBox="0 0 155 48" fill="none" xmlns="http://www.w3.org/2000/svg">
<g clip-path="url(#clip0_50_6917)">
<path d="M103.052 13.9744C101.806 14.1069 101.17 14.8485 101.17 16.1736C101.17 17.1278 101.541 18.6129 102.23 20.4949L103.476 23.8875C104.907 27.5714 106.073 30.7783 106.656 32.7927C108.008 28.6049 109.255 24.9471 110.447 21.74C111.322 19.3547 111.746 17.6583 111.746 16.6511C111.746 14.8489 110.765 14.0272 109.308 14.0271V13.4177H116.888V14.0271C116.464 14.1066 116.066 14.239 115.695 14.4509C115.006 14.769 113.628 16.3328 112.541 18.9568C110.739 23.4892 108.857 28.8701 106.869 35.0193L106.127 37.3523C105.809 38.4121 105.517 39.1011 105.385 39.4988C105.252 39.9228 105.066 40.5593 104.748 41.3279C104.563 41.911 104.324 42.4941 104.032 43.0242C103.661 43.7133 102.973 45.1185 102.416 45.5427C101.541 46.2849 100.242 47.1069 98.625 46.9744C95.4709 46.9742 93.1124 44.6411 93.0859 41.8845C93.086 40.0027 94.2787 38.7566 96.0811 38.7566C97.3797 38.7567 98.5195 39.4463 98.5195 40.9041C98.5195 41.964 97.4596 43.0504 97.459 43.6072C97.459 45.0385 98.2807 45.7019 99.8975 45.7019C101.196 45.7019 102.257 44.8795 103.052 43.2361C104.112 41.3542 104.218 39.2871 103.316 36.9812L96.6641 19.4871C95.1268 15.4584 93.9868 14.1335 92.5557 13.9744V13.364H103.052V13.9744ZM47.8926 12.8074C54.3866 12.8074 57.2231 15.8826 57.3291 22.5886V32.8728C57.3291 33.5091 57.5146 36.1858 59.8467 35.8416V36.4509C59.8057 36.4655 54.6455 38.2938 53.0879 35.1521C52.6639 34.304 52.4523 33.4029 52.4258 32.4753C50.9945 35.4175 47.8661 36.9812 44.8975 36.9812C41.1602 36.9812 38.4834 35.2316 38.4834 31.4148C38.4834 30.4607 38.7482 29.5068 39.3047 28.7117C40.4179 27.0683 41.6905 26.1931 44.1025 25.2654C45.2952 24.8148 46.3025 24.4971 47.0977 24.2585C47.8663 24.0465 48.9 23.8076 50.0928 23.5691L52.3984 23.0125V20.2556C52.3984 15.6703 50.4109 13.6034 47.6279 13.6033C45.4544 13.6033 44.208 15.0341 44.208 16.6775C44.208 17.5786 44.8446 18.9303 44.8447 19.8845C44.8447 21.1568 43.6784 22.0847 42.0615 22.0847C40.5508 22.0847 39.6232 20.8392 39.623 19.196C39.623 17.4998 40.4444 16.0416 42.167 14.7429C43.8103 13.4707 45.8252 12.7809 47.8926 12.8074ZM126.244 12.781C129.425 12.781 132.209 13.9736 134.488 16.3591C135.602 17.4724 136.503 18.7978 137.086 20.2556C137.696 21.7134 137.986 23.2776 137.96 24.8679C137.986 26.4583 137.696 28.0224 137.086 29.4802C136.476 30.938 135.601 32.2899 134.488 33.4031C132.209 35.7356 129.451 36.9548 126.244 36.9548C123.011 36.9812 120.228 35.7883 117.948 33.4294C115.722 31.1499 114.476 28.0751 114.529 24.8679C114.503 23.3041 114.794 21.7398 115.377 20.282C115.96 18.8243 116.835 17.4988 117.948 16.3591C120.228 13.9738 122.984 12.7811 126.244 12.781ZM68.1172 13.3904V13.9998C66.1027 14.2383 65.678 15.6438 66.9238 19.4607C67.2419 20.4415 68.0378 22.5883 69.2305 25.8484C70.4232 29.1086 71.1653 31.7061 71.4834 32.7664C71.8014 31.6798 71.4834 32.2887 76.5723 18.5593C77.553 15.9352 76.5192 14.2915 74.3457 13.9734V13.4167H90.6201V31.8123C90.6201 34.3831 91.7336 35.5756 93.0322 35.7878V36.3982H82.96V35.7878C84.2588 35.6023 85.5049 34.4097 85.5049 31.8386V16.4392C85.5049 14.0007 82.96 13.9998 82.96 13.9998C82.3769 13.9733 81.7937 14.1061 81.2637 14.3181C80.7073 14.5301 80.2305 14.8747 79.833 15.2986C79.0113 16.0938 78.2691 17.234 77.6064 18.7449C76.9968 20.0701 72.4905 33.11 71.3506 36.3708H67.8516C67.1623 34.2499 65.0687 28.0211 63.293 23.5154L61.6758 19.3279C60.536 16.1207 59.1312 14.3178 57.5674 13.9998V13.3904H68.1172ZM33.8447 31.8123C33.8447 34.3302 34.9842 35.5228 36.3359 35.7615C36.8903 35.8623 37.373 35.8917 37.3965 35.8943V36.3718H19.7959C17.9673 36.3717 16.8013 35.5495 15.5557 33.4822L10.3076 24.8943L8.13379 27.28V31.8123C8.13379 34.2506 8.95535 35.5228 10.625 35.7615V36.3718H0.5V35.7615C1.82528 35.5759 3.09766 34.516 3.09766 31.7859V7.18823C3.09761 4.9353 1.79877 3.66284 0.5 3.66284V3.0271L8.13379 1.38354V26.2996L13.7002 19.8318C16.2977 16.8101 16.4298 14.8754 14.1768 14.0007V13.3904H22.9238V14.0007C20.2999 14.8755 17.5165 16.9689 14.5215 20.282L10.5459 24.656C11.8977 24.2849 13.3292 24.3643 14.6279 24.8679C15.9266 25.3715 17.0401 26.2729 17.7822 27.4656L21.3076 33.0583C22.0232 34.2245 22.8716 35.0199 23.9053 35.4705C24.5148 35.7354 25.1774 35.8682 25.8398 35.8152C25.9724 35.7887 26.0784 35.788 26.2109 35.7615C27.5097 35.5759 28.8086 34.1977 28.8086 31.8123V7.10913C28.8086 4.67065 27.5097 3.53039 26.2109 3.66284V3.0271L33.8447 1.38354V31.8123ZM126.881 13.656C124.018 13.0729 121.5 16.0147 120.546 20.6531C120.148 22.747 120.042 24.8678 120.254 26.9617C120.466 29.0822 121.05 31.1235 122.004 33.032C122.932 34.8077 124.125 35.841 125.529 36.1326C128.392 36.7154 130.989 33.6677 131.943 28.9763C132.739 25.0534 132.341 20.2819 130.406 16.7566C129.505 14.9809 128.286 13.9476 126.881 13.656ZM52.3984 23.7546C52.1068 23.8872 51.4708 24.0993 50.4111 24.5232L48.29 25.2917C47.7335 25.5303 47.3625 25.7427 46.5674 26.1667C45.9578 26.4318 45.4273 26.8293 44.9502 27.3064C44.3671 27.9956 43.6514 29.1885 43.6514 30.4607C43.6514 33.1906 45.1359 34.648 47.3887 34.6482C48.5549 34.6482 49.6683 34.1977 50.7285 33.323C51.8417 32.4483 52.3984 31.2029 52.3984 29.6921V23.7546ZM150.736 7.40015L154.5 13.4177H136.529V1.38354H154.5L150.736 7.40015ZM87.9697 4.35229C88.7914 4.35229 89.5868 4.6969 90.1699 5.28003C90.753 5.86316 91.0977 6.65857 91.0977 7.48022C91.0711 8.27522 90.7265 9.07016 90.1436 9.62671C89.5604 10.1833 88.765 10.5017 87.9434 10.5017C87.1482 10.4752 86.3799 10.1568 85.8232 9.62671C85.2402 9.04365 84.922 8.2753 84.9219 7.48022C84.8954 6.68514 85.2129 5.88951 85.7959 5.3064C86.379 4.6968 87.1481 4.37884 87.9697 4.35229Z" fill="#120E22"/>
</g>
<defs>
<clipPath id="clip0_50_6917">
<rect width="154" height="47" fill="white" transform="translate(0.5 0.686035)"/>
</clipPath>
</defs>
</svg>
