<svg width="201" height="48" viewBox="0 0 201 48" fill="none" xmlns="http://www.w3.org/2000/svg">
<g clip-path="url(#clip0_50_6916)">
<path d="M145.416 29.1711V30.6848C145.416 32.7249 144.692 34.2386 143.113 35.0941C141.665 35.8839 139.756 36.2787 137.256 36.2787C135.281 36.2787 133.307 36.1471 131.333 35.8839L130.74 35.818V35.2257V32.7907V32.001L131.53 32.1326C134.294 32.5933 136.203 32.7907 137.321 32.7907C138.703 32.7907 139.625 32.6591 140.217 32.4617C140.48 32.3301 140.546 32.3301 140.612 32.1326C140.743 31.9352 140.809 31.8036 140.743 31.4745V29.6976C140.743 29.1053 140.546 28.9079 140.349 28.7763C140.02 28.5788 139.427 28.4472 138.374 28.4472H136.466C134.623 28.4472 133.109 28.0523 131.991 27.1968C130.872 26.3412 130.345 25.0908 130.345 23.5772V21.9977C130.345 20.3524 131.135 19.1678 132.649 18.3781C134.097 17.6542 136.071 17.2593 138.638 17.2593C139.23 17.2593 140.941 17.3909 143.837 17.5225L144.495 17.5884V18.2465V20.5499V21.4054L143.705 21.2738C141.994 20.9447 140.283 20.8131 138.572 20.7473C136.926 20.7473 135.939 20.9447 135.544 21.1422C135.215 21.3396 135.018 21.6028 135.018 22.1951V23.643C135.018 23.972 135.15 24.1695 135.413 24.3011C135.742 24.4985 136.4 24.6302 137.387 24.6302H138.638H139.361C141.204 24.6302 142.718 24.9592 143.837 25.8148C144.89 26.4071 145.416 27.6575 145.416 29.1711ZM122.909 11.1389H122.185V12.1918V35.1599V35.8839H122.909H126.068H126.792V35.1599V12.1918V11.1389H126.068H122.909ZM164.633 23.5772V27.3284V28.1181H163.909H153.248V29.895C153.248 30.948 153.577 31.5403 154.169 31.8694C154.827 32.2642 155.946 32.5275 157.525 32.5275C159.105 32.5275 160.882 32.2642 163.053 31.7378L163.975 31.5403V32.4617V34.8309V35.4232L163.383 35.5548C161.342 36.0155 159.171 36.2787 157.065 36.2787C154.366 36.2787 152.326 35.8839 150.813 34.8967C149.299 33.8437 148.575 32.33 148.575 30.3557V23.5772C148.575 21.3396 149.233 19.6285 150.615 18.5097C151.997 17.4567 154.103 16.9961 156.736 16.9961C159.236 16.9961 161.211 17.3909 162.527 18.4439C164.041 19.4969 164.633 21.2738 164.633 23.5772ZM160.026 22.59C160.026 21.7345 159.763 21.2738 159.434 21.0763C158.973 20.8131 158.118 20.6157 156.67 20.6157C155.288 20.6157 154.432 20.8131 153.906 21.0763C153.577 21.2738 153.248 21.7345 153.248 22.6558V24.696H160.026V22.59ZM114.485 17.3909H113.761V18.1148V31.0138C113.761 31.6719 113.564 32.001 113.169 32.1984C112.642 32.4617 111.589 32.5933 109.812 32.5933C109.22 32.5933 108.628 32.5275 108.035 32.3959C107.706 32.3301 107.509 32.1984 107.311 32.001C107.18 31.8036 107.048 31.6719 106.982 31.4087C106.917 31.0796 106.851 30.8164 106.917 30.5532V18.049V17.3251H106.193H103.034H102.31V18.049V30.619C102.31 32.3959 102.77 33.8437 103.823 34.8309C104.876 35.8839 106.653 36.2129 108.957 36.2129C110.668 36.2129 112.116 36.0155 113.169 35.5548C113.366 35.4232 113.564 35.3574 113.827 35.2257V35.8839H114.551H117.71H118.434V35.1599V18.049V17.3251H117.71H114.485V17.3909ZM196.683 23.3139C195.235 23.3139 193.985 24.1037 193.392 25.2883H189.246L187.404 9.75684H183.587L178.19 30.4215L176.808 24.6302H168.647V28.184H173.649L176.216 39.1086H179.901L184.705 21.0105L185.758 28.3156L185.89 28.9079H193.458C194.116 30.0925 195.301 30.8822 196.749 30.8822C198.789 30.8822 200.5 29.2369 200.5 27.1968C200.434 25.025 198.723 23.3139 196.683 23.3139ZM98.1637 14.4294C98.4928 15.1533 98.756 16.7986 98.756 16.7986V21.537C98.756 23.7088 97.9005 25.3541 96.1236 26.2754C94.4783 27.131 92.2407 27.5917 89.4108 27.5917H86.6468V35.1599V35.8839H85.9228H82.5007H81.7767V35.1599V12.2577V11.5337H82.5007H89.9373C90.9245 11.5337 91.7142 11.5995 92.3723 11.5995C93.0962 11.6654 93.886 11.797 94.6099 11.9286C95.3338 12.0602 96.0577 12.3893 96.65 12.7841C97.3082 13.2448 97.7688 13.7713 98.1637 14.4294ZM93.9518 17.1277C94.0176 16.7328 93.886 16.3379 93.6227 16.0089C93.3595 15.6798 93.0304 15.4824 92.6356 15.4166C92.1749 15.285 91.7142 15.2192 91.2535 15.1533C90.8587 15.0875 90.398 15.0875 89.8057 15.0875H86.7126V24.0378H89.8715C91.1219 24.0378 92.1091 23.8404 93.0304 23.3797C93.6885 23.0507 94.0834 22.3926 94.0834 21.3396L93.9518 17.1277ZM11.0956 21.3396H8.33152C6.88368 21.3396 6.09395 21.1422 5.76489 20.9447C5.43583 20.7473 5.2384 20.4182 5.2384 19.7601V17.1277C5.2384 16.2721 5.50164 15.8115 5.96232 15.5482C6.22557 15.4166 6.62043 15.285 7.34436 15.1533C8.00247 15.0217 8.85801 15.0217 9.91099 15.0217C11.3588 15.0217 13.3332 15.2192 15.8998 15.614L16.6895 15.7456V14.9559V12.3235V11.6654L16.0314 11.5995C14.0571 11.3363 12.0828 11.2047 10.1084 11.2047C6.68625 11.2047 4.18542 11.5995 2.67177 12.6525C1.22392 13.7055 0.5 15.2192 0.5 17.2593V19.102C0.5 21.0105 0.960677 22.59 2.01366 23.7088C3.13244 24.8276 4.97516 25.3541 7.34436 25.3541H10.0426C11.4905 25.3541 12.2144 25.5515 12.5434 25.8148C12.8725 26.0122 13.0699 26.4729 13.0699 27.3284V30.2899C13.0699 30.7506 13.0041 31.0138 12.8725 31.3429C12.7409 31.6061 12.6092 31.7378 12.2144 31.8694C11.4905 32.1984 10.3717 32.3959 8.7922 32.3959C6.81787 32.3959 4.51448 32.1326 1.81622 31.5403L0.960678 31.3429V32.1984V35.0283V35.6206L1.61879 35.7522C3.92218 36.0813 6.29138 36.2787 8.66058 36.3445C11.6221 36.3445 13.9913 35.8839 15.5049 34.8309C17.1502 33.7121 17.8741 31.7378 17.8741 29.1711V27.5258C17.8741 25.5515 17.4793 23.972 16.4263 22.9849C15.3075 21.7345 13.4648 21.3396 11.0956 21.3396ZM76.7751 11.1389H77.499V12.1918V35.1599V35.8839H76.7751H73.682H72.958V35.1599C72.7606 35.2916 72.629 35.3574 72.4316 35.4232C71.3128 35.9497 69.7333 36.2129 67.9564 36.2129C65.4556 36.2129 63.5471 35.818 62.3625 34.8967C61.112 33.9095 60.5856 32.1984 60.5856 30.0267V22.59C60.5856 20.7473 61.1779 19.2336 62.4941 18.3123C63.7445 17.4567 65.7188 17.0619 68.1538 17.0619C69.4701 17.0619 70.8521 17.2593 72.0367 17.6542C72.2999 17.7858 72.629 17.8516 72.8922 17.9832C72.8922 17.0619 72.8264 16.2063 72.8264 15.6798V12.1918V11.1389H73.5503H75.9854H76.7751ZM72.958 22.2609C72.958 21.8003 72.7606 21.4712 72.1683 21.1422C71.5102 20.8131 70.523 20.6157 69.0094 20.6157C68.088 20.6157 67.3641 20.6815 66.7718 20.7473C66.1795 20.8131 65.8504 20.9447 65.653 21.0105C65.4556 21.1422 65.1923 21.4054 65.1923 22.2609V30.6848C65.1923 31.4745 65.4556 31.8694 65.8504 32.1326C66.3111 32.3959 67.2325 32.6591 68.7461 32.6591C70.4572 32.6591 71.576 32.4617 72.1683 32.1326C72.6948 31.8694 72.958 31.4745 72.958 30.7506V22.2609ZM37.2884 23.5772V27.3284V28.1181H36.6303H25.9031V29.895C25.9031 30.948 26.2321 31.5403 26.8244 31.8694C27.4826 32.2642 28.6013 32.5275 30.1808 32.5275C31.7603 32.5275 33.5372 32.2642 35.709 31.7378L36.6303 31.5403V32.4617V34.8309V35.4232L36.038 35.5548C33.9979 36.0155 31.8261 36.2787 29.7201 36.2787C27.0877 36.2787 24.9817 35.8839 23.4681 34.8967C21.9544 33.8437 21.2305 32.33 21.2305 30.3557V23.5772C21.2305 21.3396 21.8886 19.6285 23.2706 18.5097C24.6527 17.4567 26.7586 16.9961 29.3911 16.9961C31.8919 16.9961 33.8662 17.3909 35.1825 18.4439C36.7619 19.4969 37.2884 21.2738 37.2884 23.5772ZM32.7474 24.5643L32.6816 22.5242C32.6816 21.6686 32.4184 21.208 32.0893 21.0105C31.6287 20.7473 30.7731 20.5499 29.3253 20.5499C27.9432 20.5499 27.0877 20.7473 26.5612 21.0105C26.2321 21.208 25.9031 21.6686 25.9031 22.59L25.9689 24.6302L32.7474 24.5643ZM50.5165 16.9961C48.8054 16.9961 47.3575 17.1935 46.3045 17.6542C46.1071 17.7858 45.9097 17.8516 45.6464 17.9832V17.3251H44.9225H41.7636H41.0396V18.049V35.1599V35.8839H41.7636H44.9225H45.6464V35.1599V22.7874C45.6464 21.8661 45.9097 21.4054 46.2387 21.1422C46.6336 20.8789 47.6866 20.6157 49.5951 20.6157C50.1874 20.6157 50.7797 20.6815 51.372 20.8131C51.7011 20.8789 51.8985 21.0105 52.0959 21.208C52.2275 21.4054 52.3592 21.537 52.3592 21.8003C52.425 22.1293 52.4908 22.3926 52.425 22.6558V35.0283V35.8839H53.1489H56.3078H57.0318V35.1599V22.6558C57.0318 20.8789 56.5711 19.4311 55.5839 18.4439C54.5309 17.3909 52.754 16.9961 50.5165 16.9961Z" fill="#199FC0"/>
</g>
<defs>
<clipPath id="clip0_50_6916">
<rect width="200" height="47" fill="white" transform="translate(0.5 0.686035)"/>
</clipPath>
</defs>
</svg>
