<svg width="154" height="48" viewBox="0 0 154 48" fill="none" xmlns="http://www.w3.org/2000/svg">
<g clip-path="url(#clip0_50_6903)">
<path d="M33.6362 11.0156C33.6065 10.801 33.4173 10.682 33.2604 10.669C33.1046 10.6561 30.0526 10.6101 30.0526 10.6101C30.0526 10.6101 27.5002 8.15349 27.248 7.90358C26.9959 7.65368 26.5035 7.72912 26.312 7.7857C26.3096 7.78688 25.8327 7.93305 25.0299 8.17942C24.8955 7.74798 24.698 7.21751 24.4161 6.6847C23.5074 4.96601 22.1765 4.05715 20.5684 4.0548C20.5661 4.0548 20.5649 4.0548 20.5625 4.0548C20.4507 4.0548 20.3401 4.06541 20.2283 4.07483C20.1807 4.01825 20.1332 3.96285 20.0832 3.90862C19.3826 3.16598 18.4847 2.80409 17.4083 2.83591C15.3316 2.89485 13.2633 4.38132 11.5863 7.02184C10.4064 8.87962 9.50839 11.2137 9.25388 13.0208C6.86915 13.7528 5.20163 14.2644 5.16476 14.2762C3.9611 14.651 3.92305 14.6875 3.76605 15.8122C3.64949 16.662 0.5 40.7992 0.5 40.7992L26.8936 45.3234L38.3331 42.5049C38.3331 42.5049 33.6659 11.2302 33.6362 11.0156ZM23.7084 8.58492C23.1007 8.77118 22.4096 8.98336 21.6603 9.21323C21.6448 8.17117 21.52 6.72124 21.0299 5.46817C22.6059 5.76406 23.3813 7.53108 23.7084 8.58492ZM20.2794 9.63759C18.8962 10.0619 17.3868 10.5252 15.8728 10.9897C16.2986 9.37354 17.1062 7.76448 18.0981 6.70945C18.4668 6.31692 18.983 5.87958 19.5943 5.62967C20.1688 6.8179 20.2937 8.50005 20.2794 9.63759ZM17.4499 4.20568C17.9375 4.19507 18.3479 4.30117 18.6988 4.52985C18.1374 4.81866 17.595 5.2336 17.086 5.77466C15.7669 7.17744 14.7559 9.35468 14.3527 11.4553C13.0955 11.8408 11.8657 12.2192 10.7334 12.5658C11.4483 9.2592 14.2445 4.29763 17.4499 4.20568Z" fill="#95BF47"/>
<path d="M33.2616 10.6701C33.1059 10.6572 30.0539 10.6112 30.0539 10.6112C30.0539 10.6112 27.5015 8.15456 27.2494 7.90466C27.1554 7.81153 27.0282 7.7632 26.8949 7.74316L26.8961 45.3222L38.3344 42.5048C38.3344 42.5048 33.6673 11.2313 33.6376 11.0167C33.6078 10.8021 33.4175 10.6831 33.2616 10.6701Z" fill="#5E8E3E"/>
<path d="M20.5543 16.4992L19.2258 21.4254C19.2258 21.4254 17.7438 20.757 15.9871 20.8666C13.4108 21.0282 13.3835 22.6384 13.4097 23.0427C13.55 25.2459 19.3982 25.7269 19.7265 30.8876C19.9846 34.9474 17.5535 37.7247 14.0508 37.9439C9.84627 38.2068 7.53174 35.749 7.53174 35.749L8.4226 31.9934C8.4226 31.9934 10.7526 33.7356 12.6175 33.6189C13.8355 33.5423 14.2708 32.5604 14.2267 31.866C14.0436 28.9921 9.28131 29.1619 8.98042 24.4396C8.72706 20.4659 11.3604 16.4391 17.1705 16.076C19.4089 15.9334 20.5543 16.4992 20.5543 16.4992Z" fill="white"/>
<path d="M53.3975 26.8147C52.0822 26.1073 51.4062 25.5111 51.4062 24.6914C51.4062 23.6485 52.3452 22.9785 53.8116 22.9785C55.5186 22.9785 57.0427 23.6859 57.0427 23.6859L58.2448 20.0357C58.2448 20.0357 57.1395 19.1787 53.8859 19.1787C49.3582 19.1787 46.2203 21.7485 46.2203 25.3613C46.2203 27.4098 47.6855 28.9742 49.6402 30.0907C51.2186 30.984 51.7825 31.6177 51.7825 32.5484C51.7825 33.5165 50.9933 34.2986 49.5282 34.2986C47.3445 34.2986 45.2824 33.1809 45.2824 33.1809L44.0049 36.8311C44.0049 36.8311 45.9101 38.0973 49.1152 38.0973C53.775 38.0973 57.1194 35.8256 57.1194 31.7287C57.1182 29.533 55.4278 27.9686 53.3975 26.8147Z" fill="#120E22"/>
<path d="M71.96 19.1426C69.6677 19.1426 67.864 20.223 66.4743 21.861L66.3988 21.8235L68.3901 11.5078H63.2042L58.1693 37.7631H63.3552L65.0835 28.7884C65.7594 25.399 67.5254 23.3143 69.1793 23.3143C70.3436 23.3143 70.7955 24.0964 70.7955 25.2142C70.7955 25.9216 70.72 26.7786 70.5701 27.486L68.6166 37.7643H73.8027L75.8313 27.1504C76.057 26.0326 76.2078 24.6928 76.2078 23.7983C76.2057 20.8929 74.6652 19.1426 71.96 19.1426Z" fill="#120E22"/>
<path d="M87.9299 19.1423C81.6914 19.1423 77.5594 24.7288 77.5594 30.9477C77.5594 34.9323 80.0388 38.1347 84.6988 38.1347C90.8236 38.1347 94.9571 32.698 94.9571 26.3294C94.9571 22.6429 92.7771 19.1423 87.9299 19.1423ZM85.3748 34.1886C83.6085 34.1886 82.8568 32.6991 82.8568 30.8366C82.8568 27.8949 84.398 23.0907 87.2161 23.0907C89.0574 23.0907 89.6576 24.6551 89.6576 26.1821C89.6576 29.347 88.1185 34.1886 85.3748 34.1886Z" fill="#120E22"/>
<path d="M108.221 19.1423C104.721 19.1423 102.735 22.1963 102.735 22.1963H102.66L102.961 19.4405H98.3767C98.1516 21.303 97.7372 24.1324 97.3249 26.2557L93.7173 45.0621H98.9033L100.33 37.4647H100.444C100.444 37.4647 101.508 38.1347 103.488 38.1347C109.575 38.1347 113.557 31.9532 113.557 25.6957C113.557 22.2337 112.016 19.1423 108.221 19.1423ZM103.261 34.2623C101.915 34.2623 101.118 33.5175 101.118 33.5175L101.983 28.7134C102.584 25.5109 104.275 23.3877 106.079 23.3877C107.658 23.3877 108.146 24.8398 108.146 26.2183C108.146 29.5329 106.154 34.2623 103.261 34.2623Z" fill="#120E22"/>
<path d="M120.96 11.7683C119.307 11.7683 117.992 13.072 117.992 14.7474C117.992 16.2744 118.969 17.3173 120.434 17.3173H120.509C122.125 17.3173 123.515 16.2369 123.553 14.3382C123.553 12.8486 122.538 11.7683 120.96 11.7683Z" fill="#120E22"/>
<path d="M113.708 37.7629H118.893L122.426 19.5527H117.202L113.708 37.7629Z" fill="#120E22"/>
<path d="M135.616 19.5153H132.008L132.195 18.6583C132.496 16.908 133.548 15.3436 135.277 15.3436C136.199 15.3436 136.93 15.6044 136.93 15.6044L137.944 11.5824C137.944 11.5824 137.042 11.1357 135.125 11.1357C133.284 11.1357 131.444 11.6572 130.053 12.8486C128.287 14.3382 127.46 16.4976 127.047 18.6583L126.898 19.5153H124.492L123.74 23.3888H126.146L123.403 37.764H128.589L131.332 23.3888H134.902L135.616 19.5153Z" fill="#120E22"/>
<path d="M148.09 19.553C148.09 19.553 144.848 27.6472 143.392 32.0656H143.317C143.218 30.6427 142.039 19.553 142.039 19.553H136.59L139.711 36.2735C139.786 36.6453 139.748 36.8698 139.598 37.1305C138.995 38.2845 137.981 39.4023 136.779 40.2219C135.802 40.9292 134.713 41.3758 133.849 41.674L135.276 46.0315C136.329 45.8083 138.507 44.9512 140.349 43.2383C142.717 41.0414 144.895 37.652 147.149 33.0337L153.5 19.5518H148.09V19.553Z" fill="#120E22"/>
</g>
<defs>
<clipPath id="clip0_50_6903">
<rect width="153" height="47" fill="white" transform="translate(0.5 0.686035)"/>
</clipPath>
</defs>
</svg>
