<svg width="722" height="501" viewBox="0 0 722 501" fill="none" xmlns="http://www.w3.org/2000/svg">
    <path d="M199.5 333.762C149.341 351.185 107.738 376.594 107.738 404.89C107.738 457.418 226.65 500 361 500C495.35 500 614.262 457.418 614.262 404.89C614.262 376.5 572.449 351.016 522 333.589" stroke="url(#paint0_linear_0_1)" stroke-width="1.82873"/>
    <path d="M199 166.595C117.938 187.183 54.3688 222.777 54.3688 263.236C54.3688 326.94 197.175 378.583 361 378.583C524.825 378.583 667.631 326.94 667.631 263.236C667.631 222.611 603.621 186.891 522 166.342" stroke="url(#paint1_linear_0_1)" stroke-width="1.82873"/>
    <path d="M199 1.36645C87.2574 24.0094 1 69.3463 1 121.583C1 196.463 167.7 257.165 361 257.165C554.3 257.165 721 196.463 721 121.583C721 69.1906 634.287 23.7392 522 1.16461" stroke="url(#paint2_linear_0_1)" stroke-width="1.82873"/>
    <defs>
        <linearGradient id="paint0_linear_0_1" x1="361" y1="500" x2="361" y2="333.589" gradientUnits="userSpaceOnUse">
            <stop stop-color="white" stop-opacity="0.6"/>
            <stop offset="1" stop-color="white" stop-opacity="0"/>
        </linearGradient>
        <linearGradient id="paint1_linear_0_1" x1="361" y1="378.583" x2="361" y2="166.342" gradientUnits="userSpaceOnUse">
            <stop stop-color="white" stop-opacity="0.6"/>
            <stop offset="1" stop-color="white" stop-opacity="0"/>
        </linearGradient>
        <linearGradient id="paint2_linear_0_1" x1="361" y1="257.165" x2="361" y2="1.16461" gradientUnits="userSpaceOnUse">
            <stop stop-color="white" stop-opacity="0.6"/>
            <stop offset="1" stop-color="white" stop-opacity="0.02"/>
        </linearGradient>
    </defs>
</svg>
