<svg width="161" height="48" viewBox="0 0 161 48" fill="none" xmlns="http://www.w3.org/2000/svg">
<g clip-path="url(#clip0_30_292)">
<path d="M21.623 3.30933C33.2885 3.30933 42.7469 12.7677 42.7471 24.4324C42.7471 36.0972 33.2886 45.5564 21.623 45.5564C19.5448 45.5564 17.5367 45.2554 15.6396 44.696L29.335 36.4197C32.3048 34.7952 34.5988 32.1006 35.6934 28.8621C35.8048 28.6031 35.8691 28.3175 35.8691 28.0183C35.8691 26.8447 34.9128 25.8925 33.7305 25.8923C32.6763 25.8923 31.8007 26.6494 31.625 27.6482C30.3412 31.277 26.8615 33.8804 22.7734 33.8806C17.5905 33.8806 13.3907 29.6999 13.3906 24.5476C13.3906 19.3918 17.5905 15.2146 22.7734 15.2146C26.2668 15.2147 29.3147 17.1146 30.9297 19.9294L19.3467 24.3523C18.4582 24.6113 17.8096 25.4291 17.8096 26.3943C17.8098 27.5678 18.7659 28.5192 19.9482 28.5193C20.2456 28.5193 20.5294 28.4589 20.7861 28.3513L20.793 28.3582L32.1455 24.0193L34.5713 23.0945L35.0244 22.9226L36.2471 22.4558C35.2369 15.965 29.5943 10.991 22.7861 10.991C21.7694 10.991 20.7763 11.1014 19.8203 11.3132L19.8301 11.3064L2.70312 15.032C6.16226 8.08414 13.3351 3.30946 21.623 3.30933ZM11.3799 31.9568C13.1706 34.6741 15.9179 36.7154 19.1445 37.6033L10.8594 42.6111C7.75359 40.7679 5.16071 38.1514 3.3457 35.0271L11.3799 31.9568ZM88.793 19.2214C89.9778 19.2215 91.0519 19.4976 92.0156 20.0505C92.9951 20.5877 93.7614 21.354 94.3145 22.3494C94.8674 23.329 95.1436 24.4745 95.1436 25.7859C95.1435 27.0972 94.8673 28.2505 94.3145 29.2458C93.7614 30.2255 92.9951 30.9917 92.0156 31.5447C91.0519 32.0818 89.9778 32.3503 88.793 32.3503C87.1656 32.3503 85.8852 31.8373 84.9531 30.8103V36.7585H81.2559V19.4109H84.7871V20.8796C85.7035 19.7738 87.0393 19.2214 88.793 19.2214ZM72.6602 15.2869C73.7185 15.2869 74.7536 15.4131 75.7646 15.6658C76.7757 15.9185 77.6606 16.2827 78.4189 16.7566L77.2344 19.6716C75.7017 18.8027 74.1693 18.3679 72.6367 18.3679C71.5623 18.3679 70.7645 18.5419 70.2432 18.8894C69.7377 19.2369 69.4845 19.6948 69.4844 20.2634C69.4844 20.8322 69.7768 21.2593 70.3613 21.5437C70.9616 21.8123 71.8704 22.0807 73.0869 22.3494C74.3507 22.6495 75.3857 22.9496 76.1914 23.2498C76.9972 23.5499 77.6851 24.0238 78.2539 24.6716C78.8384 25.3194 79.1308 26.1966 79.1309 27.3025C79.1309 28.2505 78.8614 29.1199 78.3242 29.9099C77.8029 30.6838 77.0133 31.3004 75.9551 31.7585C74.8965 32.2168 73.6085 32.4451 72.0918 32.4451C70.7805 32.4451 69.5087 32.2711 68.2764 31.9236C67.0598 31.5602 66.0794 31.0949 65.3369 30.5261L66.6406 27.6345C67.3516 28.1559 68.1971 28.5744 69.1768 28.8904C70.1562 29.2064 71.1357 29.364 72.1152 29.364C73.2052 29.364 74.0108 29.2063 74.5322 28.8904C75.0536 28.5586 75.3145 28.1238 75.3145 27.5867C75.3144 27.1919 75.1567 26.8677 74.8408 26.615C74.5406 26.3465 74.1458 26.1333 73.6562 25.9753C73.1823 25.8174 72.5343 25.6434 71.7129 25.4539C70.4489 25.1537 69.4132 24.8536 68.6074 24.5535C67.8019 24.2533 67.1069 23.7715 66.5225 23.1082C65.9537 22.4447 65.669 21.5596 65.6689 20.4539C65.6689 19.4901 65.9298 18.6206 66.4512 17.8464C66.9726 17.0564 67.7551 16.4326 68.7979 15.9744C69.8563 15.5163 71.1437 15.2869 72.6602 15.2869ZM57.5195 19.2214C58.7677 19.2214 59.898 19.4899 60.9092 20.0271C61.9201 20.5642 62.7096 21.3385 63.2783 22.3494C63.8628 23.3446 64.1552 24.5058 64.1553 25.8328C64.1553 25.8802 64.1324 26.2127 64.085 26.8289H54.4385C54.6123 27.6187 55.0232 28.2427 55.6709 28.7009C56.3187 29.1592 57.1251 29.3884 58.0889 29.3884C58.7523 29.3884 59.3372 29.2928 59.8428 29.1033C60.3639 28.8979 60.8459 28.5824 61.2881 28.156L63.2549 30.2888C62.0542 31.6632 60.3007 32.3503 57.9941 32.3503C56.5564 32.3503 55.2837 32.0743 54.1777 31.5212C53.0719 30.9525 52.2195 30.1698 51.6191 29.1746C51.0187 28.1792 50.7178 27.0499 50.7178 25.7859C50.7178 24.5378 51.0103 23.416 51.5947 22.4207C52.1951 21.4095 53.0091 20.627 54.0361 20.074C55.0788 19.5053 56.24 19.2215 57.5195 19.2214ZM101.008 26.0701C101.008 28.124 101.869 29.1511 103.592 29.1511C104.476 29.1511 105.187 28.8663 105.725 28.2976C106.261 27.7131 106.53 26.852 106.53 25.7146V19.4109H110.228V32.1609H106.72V30.6443C106.229 31.1973 105.645 31.6234 104.966 31.9236C104.286 32.2079 103.551 32.3503 102.762 32.3503C101.087 32.3503 99.7599 31.8687 98.7803 30.905C97.8008 29.9413 97.3105 28.5109 97.3105 26.615V19.4109H101.008V26.0701ZM117.562 19.6951H120.738V22.5388H117.562V27.7292C117.563 28.2663 117.697 28.685 117.966 28.9851C118.25 29.2694 118.645 29.4118 119.15 29.4119C119.734 29.4119 120.232 29.2541 120.644 28.9382L121.639 31.5447C121.275 31.8132 120.825 32.0187 120.288 32.1609C119.767 32.2873 119.213 32.3503 118.629 32.3503C117.112 32.3503 115.934 31.9633 115.098 31.1892C114.276 30.4151 113.865 29.277 113.865 27.7761V22.5388H111.898V19.6951H113.865V16.5906H117.562V19.6951ZM131.228 19.2214C132.807 19.2215 134.079 19.6954 135.043 20.6433C136.022 21.5912 136.512 22.9972 136.512 24.8611V32.1609H132.815V25.4304C132.815 24.4193 132.593 23.6682 132.151 23.1785C131.708 22.673 131.068 22.4207 130.231 22.4207C129.299 22.4207 128.556 22.7131 128.004 23.2976C127.451 23.8664 127.175 24.7197 127.175 25.8572V32.1609H123.478V19.4109H127.009V20.9041C127.498 20.367 128.106 19.956 128.833 19.6716C129.559 19.3715 130.358 19.2214 131.228 19.2214ZM143.323 32.1609H139.626V19.4109H143.323V32.1609ZM150.215 24.53L155.618 19.4109H160.026L154.718 24.8142L160.5 32.1609H156.021L151.992 27.1599L150.215 28.9138V32.1609H146.518V14.5759H150.215V24.53ZM11.083 17.5955C9.85994 19.6267 9.1573 22.0047 9.15723 24.5437C9.15723 25.7643 9.31861 26.9485 9.62598 28.075L1.58887 31.1453C0.88257 29.0365 0.5 26.7787 0.5 24.4324C0.500026 22.8551 0.673991 21.3183 1.00195 19.8396L11.083 17.5955ZM88.1523 22.2546C87.2046 22.2547 86.4227 22.5786 85.8066 23.2263C85.2062 23.8583 84.9062 24.7115 84.9062 25.7859C84.9063 26.8603 85.2062 27.7211 85.8066 28.3689C86.4228 29.0008 87.2045 29.3171 88.1523 29.3171C89.1003 29.3171 89.8752 29.0008 90.4756 28.3689C91.0916 27.7211 91.3994 26.8601 91.3994 25.7859C91.3994 24.7116 91.0916 23.8582 90.4756 23.2263C89.8752 22.5785 89.1003 22.2546 88.1523 22.2546ZM57.5439 22.0173C56.7067 22.0173 56.0033 22.2545 55.4346 22.7283C54.8659 23.2022 54.5181 23.8502 54.3916 24.6716H60.6719C60.5454 23.866 60.1976 23.2266 59.6289 22.7527C59.0602 22.263 58.3653 22.0174 57.5439 22.0173ZM1.7002 17.4021C1.43269 18.1877 1.20835 18.9942 1.00879 19.8074C1.19222 18.9864 1.42426 18.1839 1.7002 17.4021ZM141.475 13.5095C142.154 13.5095 142.707 13.6987 143.134 14.0779C143.56 14.4571 143.773 14.9319 143.773 15.5007C143.773 16.1166 143.56 16.6301 143.134 17.0408C142.707 17.4357 142.154 17.6335 141.475 17.6335C140.796 17.6335 140.242 17.4357 139.815 17.0408C139.389 16.6458 139.176 16.1556 139.176 15.571C139.176 14.9867 139.389 14.4971 139.815 14.1023C140.242 13.7073 140.796 13.5095 141.475 13.5095ZM2.70312 15.032C2.32236 15.7968 1.98748 16.5881 1.7002 17.4021C1.97883 16.5838 2.30489 15.788 2.70215 15.033L2.70312 15.032Z" fill="#2B64CD"/>
</g>
<defs>
<clipPath id="clip0_30_292">
<rect width="160" height="47" fill="white" transform="translate(0.5 0.686035)"/>
</clipPath>
</defs>
</svg>
