<svg width="27" height="25" viewBox="0 0 27 25" fill="none" xmlns="http://www.w3.org/2000/svg">
    <path d="M6.63391 8.29199V24.5918H1.21594V8.29199H6.63391ZM19.9308 7.91016C23.4952 7.91016 26.1681 10.2395 26.1681 15.2461V24.5918H20.7511V15.8721C20.7511 13.6809 19.9664 12.1855 18.006 12.1855C16.5097 12.1857 15.6184 13.1939 15.2267 14.167C15.0836 14.5152 15.048 15.0022 15.048 15.4893V24.5918H9.63098C9.6312 24.5465 9.70197 9.8191 9.63098 8.29199H15.049V10.6016C15.7688 9.49088 17.0562 7.91023 19.9308 7.91016ZM15.0118 10.6562H15.049V10.6016C15.0369 10.6201 15.0235 10.638 15.0118 10.6562ZM3.96106 0.43457C5.81422 0.434772 6.95515 1.65172 6.99036 3.25098C6.99032 4.81508 5.81407 6.06633 3.92493 6.06641H3.88977C2.07167 6.06641 0.895671 4.81512 0.89563 3.25098C0.89563 1.65158 2.10782 0.43457 3.96106 0.43457Z" fill="white"/>
</svg>
