<svg width="162" height="33" viewBox="0 0 162 33" fill="none" xmlns="http://www.w3.org/2000/svg">
<path fill-rule="evenodd" clip-rule="evenodd" d="M34.3848 7.21987C36.816 7.21987 38.968 7.74553 40.8407 8.79683C42.7463 9.81533 44.2246 11.2447 45.276 13.0846C46.3602 14.8916 46.9023 16.9615 46.9023 19.2942C46.9023 19.7869 46.8697 20.2962 46.804 20.8218C46.7712 21.3146 46.6723 21.8897 46.508 22.5467L29.6038 22.625C29.6888 22.8899 29.7876 23.1432 29.9002 23.3846C30.3601 24.3373 31.0172 25.0599 31.8714 25.5527C32.7256 26.0455 33.7769 26.2922 35.0253 26.2922C36.2081 26.2922 37.2432 26.0949 38.1303 25.7007C39.0502 25.3064 39.8717 24.6988 40.5944 23.8775L45.0791 28.3621C43.8963 29.7091 42.4504 30.7274 40.742 31.4174C39.0665 32.1073 37.1608 32.4525 35.0253 32.4525C32.3314 32.4525 29.9494 31.9268 27.8796 30.8755C25.8098 29.7913 24.1835 28.2961 23.0008 26.3905C21.818 24.4849 21.2265 22.3001 21.2265 19.836C21.2265 17.4048 21.8015 15.2528 22.9514 13.3801C24.1013 11.4746 25.6618 9.97968 27.633 8.89549C29.6371 7.77843 31.8879 7.21987 34.3848 7.21987ZM34.4835 13.3801C33.3993 13.3801 32.4629 13.643 31.6745 14.1686C30.886 14.6943 30.278 15.4337 29.8509 16.3865C29.7507 16.61 29.6624 16.8444 29.5858 17.0895L38.9745 17.0117C38.8913 16.6783 38.7911 16.3712 38.6726 16.0909C38.3111 15.2038 37.7851 14.5299 37.0952 14.07C36.4053 13.6101 35.5347 13.3802 34.4835 13.3801Z" fill="white"/>
<path d="M20.4637 16.1318H8.45193V31.9103H0V7.71879H8.45193V15.7845L14.753 7.67988H20.4637V16.1318Z" fill="white"/>
<path d="M82.0925 7.50342C85.1397 7.50342 87.5257 8.42328 89.2506 10.2631C91.0042 12.103 91.8812 14.6184 91.8812 17.8094V31.9103H83.4292V18.9304C83.4292 17.6368 83.0698 16.6307 82.3512 15.912C81.6325 15.1934 80.6551 14.834 79.419 14.834C78.1829 14.834 77.2052 15.1933 76.4865 15.912C75.7679 16.6307 75.4085 17.6369 75.4084 18.9304V31.9103H66.9569V18.9304C66.9569 17.6369 66.5975 16.6307 65.8789 15.912C65.1889 15.1934 64.2257 14.834 62.9896 14.834C61.7248 14.834 60.7329 15.1934 60.0142 15.912C59.2955 16.6307 58.9362 17.6368 58.9361 18.9304V31.9103H50.4842V7.71879H58.9361V10.91C59.6836 9.87509 60.6467 9.05563 61.8254 8.45192C63.0328 7.81951 64.4128 7.50342 65.9651 7.50342C67.7474 7.50344 69.3286 7.89152 70.7084 8.66769C72.117 9.44388 73.2239 10.5362 74.0288 11.9447C74.8912 10.6224 76.0268 9.55884 77.4354 8.75392C78.844 7.92023 80.3964 7.50342 82.0925 7.50342Z" fill="white"/>
<path d="M115.988 16.1318H103.977V31.9103H95.5248V7.71879H103.977V15.7845L110.277 7.67988H115.988V16.1318Z" fill="white"/>
<path d="M127.396 17.2058L134.08 7.71879H144.214L134.684 19.8793L144.386 31.9103H134.08L127.396 21.9921V31.9103H118.944V0H127.396V17.2058Z" fill="white"/>
<path d="M157.558 7.71879H161.957V14.7478H157.558V22.8548C157.558 23.5159 157.702 23.9902 157.989 24.2777C158.306 24.5652 158.823 24.7089 159.542 24.7089H162V31.9103H158.334C152.154 31.9102 149.063 28.8485 149.063 22.7252V14.7478H146.088V7.71879H149.063V1.8545H157.558V7.71879Z" fill="white"/>
<path d="M20.4636 16.1318H8.45191L8.4519 15.7845L14.7529 7.67989H20.4636V16.1318Z" fill="#4B3BFF"/>
</svg>
