<svg width="22" height="19" viewBox="0 0 22 19" fill="none" xmlns="http://www.w3.org/2000/svg">
<path d="M21.8613 1.67429L18.4695 17.8665C18.4285 18.0623 18.3389 18.2447 18.209 18.3969C18.0791 18.5491 17.913 18.6662 17.726 18.7374C17.539 18.8087 17.3371 18.8318 17.1389 18.8047C16.9406 18.7775 16.7524 18.701 16.5914 18.5821L11.6579 14.9372L8.66899 17.757C8.62986 17.7939 8.58378 17.8226 8.53342 17.8416C8.48306 17.8605 8.42945 17.8691 8.3757 17.8671C8.32195 17.8651 8.26914 17.8523 8.22037 17.8297C8.17159 17.807 8.12782 17.7748 8.09161 17.7351L8.02738 17.6645L8.54672 12.6386L17.9074 4.086C17.9537 4.04377 17.9825 3.98573 17.9881 3.92332C17.9937 3.86092 17.9757 3.79868 17.9376 3.74888C17.8996 3.69909 17.8443 3.66535 17.7826 3.65434C17.7209 3.64332 17.6574 3.65582 17.6044 3.68937L5.63328 11.2661L0.47755 9.53459C0.340462 9.48854 0.220981 9.4012 0.135501 9.28454C0.0500212 9.16789 0.00272963 9.02765 0.000114612 8.88306C-0.0025004 8.73846 0.0396895 8.5966 0.120896 8.47694C0.202102 8.35727 0.318346 8.26567 0.453679 8.21468L20.626 0.615619C20.7817 0.557061 20.9501 0.541381 21.1139 0.570219C21.2776 0.599056 21.4306 0.67135 21.5568 0.779545C21.6831 0.88774 21.7779 1.02786 21.8315 1.18526C21.8851 1.34266 21.8953 1.51156 21.8613 1.67429Z" fill="white"/>
</svg>
